<?xml version="1.0" encoding="UTF-8"?>
<!DOCTYPE svg PUBLIC "-//W3C//DTD SVG 1.1//EN" "http://www.w3.org/Graphics/SVG/1.1/DTD/svg11.dtd">
<!-- Creator: CorelDRAW 2020 (64-Bit) -->
<svg xmlns="http://www.w3.org/2000/svg" xml:space="preserve" width="366px" height="181px" version="1.1" style="shape-rendering:geometricPrecision; text-rendering:geometricPrecision; image-rendering:optimizeQuality; fill-rule:evenodd; clip-rule:evenodd"
viewBox="0 0 129.3 63.94"
 xmlns:xlink="http://www.w3.org/1999/xlink"
 xmlns:xodm="http://www.corel.com/coreldraw/odm/2003">
 <defs>
  <style type="text/css">
   <![CDATA[
    .str2 {stroke:#2B2A29;stroke-width:0.35;stroke-miterlimit:22.9256}
    .str0 {stroke:#2B2A29;stroke-width:0.35;stroke-miterlimit:22.9256}
    .str1 {stroke:#3F3F3C;stroke-width:0.35;stroke-miterlimit:22.9256}
    .str3 {stroke:#2B2A29;stroke-width:0.35;stroke-miterlimit:22.9256;stroke-dasharray:0.350000 1.060000}
    .fil4 {fill:none}
    .fil5 {fill:#FEFEFE}
    .fil3 {fill:#FEFEFE}
    .fil6 {fill:lime}
    .fil1 {fill:#3F3F3C}
    .fil0 {fill:#C19A6B}
    .fil2 {fill:#2B2A29;fill-rule:nonzero}
   ]]>
  </style>
 </defs>
 <g id="Capa_x0020_1">
  <metadata id="CorelCorpID_0Corel-Layer"/>
  <rect class="fil0 str0" x="0.18" y="0.18" width="128.95" height="63.59"/>
  <circle class="fil1 str1" cx="114.99" cy="12.19" r="0.88"/>
  <circle class="fil1 str1" cx="107.93" cy="12.19" r="0.88"/>
  <circle class="fil1 str1" cx="100.86" cy="12.19" r="0.88"/>
  <circle class="fil1 str1" cx="93.8" cy="12.19" r="0.88"/>
  <circle class="fil1 str1" cx="86.73" cy="12.19" r="0.88"/>
  <circle class="fil1 str1" cx="79.66" cy="12.19" r="0.88"/>
  <circle class="fil1 str1" cx="72.6" cy="12.19" r="0.88"/>
  <circle class="fil1 str1" cx="65.53" cy="12.19" r="0.88"/>
  <circle class="fil1 str1" cx="58.47" cy="12.19" r="0.88"/>
  <circle class="fil1 str1" cx="51.4" cy="12.19" r="0.88"/>
  <circle class="fil1 str1" cx="44.34" cy="12.19" r="0.88"/>
  <circle class="fil1 str1" cx="114.99" cy="52.82" r="0.88"/>
  <circle class="fil1 str1" cx="107.93" cy="52.82" r="0.88"/>
  <circle class="fil1 str1" cx="100.86" cy="52.82" r="0.88"/>
  <circle class="fil1 str1" cx="93.8" cy="52.82" r="0.88"/>
  <circle class="fil1 str1" cx="86.73" cy="52.82" r="0.88"/>
  <circle class="fil1 str1" cx="79.66" cy="52.82" r="0.88"/>
  <circle class="fil1 str1" cx="72.6" cy="52.82" r="0.88"/>
  <circle class="fil1 str1" cx="65.53" cy="52.82" r="0.88"/>
  <circle class="fil1 str1" cx="58.47" cy="52.82" r="0.88"/>
  <circle class="fil1 str1" cx="51.4" cy="52.82" r="0.88"/>
  <circle class="fil1 str1" cx="44.34" cy="52.82" r="0.88"/>
  <g>
   <path class="fil2" d="M114.02 61.85l2.15 -0.03 -1.05 1.97 -1.1 -1.94zm1.28 1.91c0,0.1 -0.08,0.18 -0.17,0.18 -0.1,0.01 -0.18,-0.07 -0.18,-0.17l0.35 -0.01zm-0.13 -10.06l0.13 10.06 -0.35 0.01 -0.13 -10.07 0.35 0zm-1.23 1.94l1.05 -1.96 1.1 1.94 -2.15 0.02zm0.88 -1.94c0,-0.1 0.07,-0.18 0.17,-0.18 0.1,0 0.18,0.08 0.18,0.18l-0.35 0z"/>
  </g>
  <g>
   <path class="fil2" d="M127.2 53.78l-0.02 -2.15 1.97 1.05 -1.95 1.1zm1.92 -1.27c0.1,0 0.18,0.07 0.18,0.17 0,0.1 -0.08,0.18 -0.17,0.18l-0.01 -0.35zm-13.25 0.13l13.25 -0.13 0.01 0.35 -13.25 0.13 -0.01 -0.35zm1.95 1.23l-1.97 -1.05 1.95 -1.1 0.02 2.15zm-1.94 -0.88c-0.1,0 -0.18,-0.08 -0.18,-0.17 0,-0.1 0.08,-0.18 0.17,-0.18l0.01 0.35z"/>
  </g>
  <g>
   <path class="fil2" d="M13.27 53.91l-0.02 -2.15 1.96 1.06 -1.94 1.09zm1.92 -1.27c0.1,0 0.18,0.08 0.18,0.17 0,0.1 -0.08,0.18 -0.18,0.18l0 -0.35zm-15.01 0.13l15.01 -0.13 0 0.35 -15.01 0.13 0 -0.35zm1.94 1.23l-1.97 -1.05 1.95 -1.09 0.02 2.14zm-1.94 -0.88c-0.1,0 -0.18,-0.07 -0.18,-0.17 0,-0.1 0.08,-0.18 0.18,-0.18l0 0.35z"/>
  </g>
  <g>
   <path class="fil2" d="M113.9 9.39l2.14 -0.03 -1.05 1.97 -1.09 -1.94zm1.27 1.91c0,0.1 -0.08,0.18 -0.18,0.18 -0.09,0 -0.17,-0.08 -0.17,-0.17l0.35 -0.01zm-0.13 -11.13l0.13 11.13 -0.35 0.01 -0.14 -11.13 0.36 -0.01zm-1.23 1.95l1.05 -1.97 1.1 1.95 -2.15 0.02zm0.87 -1.94c0,-0.1 0.08,-0.18 0.18,-0.18 0.1,0 0.18,0.08 0.18,0.17l-0.36 0.01z"/>
  </g>
  <rect class="fil3" x="100.68" y="2.12" width="12.72" height="7.07"/>
  <g>
   <path class="fil2" d="M78.71 50l2.15 0 -1.06 1.95 -1.09 -1.95zm1.26 1.93c0,0.1 -0.08,0.18 -0.17,0.18 -0.1,0 -0.18,-0.08 -0.18,-0.18l0.35 0zm-0.13 -38.86l0.13 38.86 -0.35 0 -0.13 -38.86 0.35 0zm-1.24 1.94l1.06 -1.96 1.09 1.95 -2.15 0.01zm0.89 -1.94c0,-0.1 0.08,-0.18 0.17,-0.18 0.1,0 0.18,0.08 0.18,0.18l-0.35 0z"/>
  </g>
  <rect class="fil4 str2" x="40.85" y="8.66" width="14.09" height="7.07"/>
  <g>
   <path class="fil2" d="M55.11 15.95l-0.35 0 0 -0.23 0.35 0 0 0.23zm-0.35 0.69l0 -0.23 0.35 0 0 0.23 0 0 -0.35 0zm0.35 0.19l-0.35 0 0 -0.19 0.35 0 0 0.19zm0 0.75l-0.35 0 0 -0.37 0.35 0 0 0.37zm0 0.75l-0.35 0 0 -0.37 0.35 0 0 0.37zm0 0.75l-0.35 0 0 -0.37 0.35 0 0 0.37zm0 0.75l-0.35 0 0 -0.37 0.35 0 0 0.37zm0 0.76l-0.35 0 0 -0.38 0.35 0 0 0.38zm0 0.75l-0.35 0 0 -0.38 0.35 0 0 0.38zm-0.35 0.56l0 -0.19 0.35 0 0 0.19 -0.35 0z"/>
  </g>
  <rect class="fil4 str2" x="12.54" y="21.9" width="42.39" height="21.2"/>
  <circle class="fil5" cx="50.34" cy="32.5" r="3.53"/>
  <circle class="fil5" cx="32.15" cy="32.5" r="3.53"/>
  <g>
   <path class="fil2" d="M50.52 28.16l-0.35 0 0 -0.21 0.35 0 0 0.21zm0 0.86l-0.35 0 0 -0.43 0.35 0 0 0.43zm-0.35 0.64l0 -0.22 0.35 0 0 0.22 0 0 -0.35 0zm0.35 0.17l-0.35 0 0 -0.17 0.35 0 0 0.17zm0 0.7l-0.35 0 0 -0.35 0.35 0 0 0.35zm0 0.69l-0.35 0 0 -0.34 0.35 0 0 0.34zm0 0.7l-0.35 0 0 -0.35 0.35 0 0 0.35zm0 0.69l-0.35 0 0 -0.34 0.35 0 0 0.34zm0 0.7l-0.35 0 0 -0.35 0.35 0 0 0.35zm0 0.69l-0.35 0 0 -0.34 0.35 0 0 0.34zm0 0.7l-0.35 0 0 -0.35 0.35 0 0 0.35zm0 0.69l-0.35 0 0 -0.34 0.35 0 0 0.34zm0 0.7l-0.35 0 0 -0.35 0.35 0 0 0.35zm0 0.7l-0.35 0 0 -0.35 0.35 0 0 0.35zm0 0.69l-0.35 0 0 -0.35 0.35 0 0 0.35zm0 0.7l-0.35 0 0 -0.35 0.35 0 0 0.35zm0 0.69l-0.35 0 0 -0.35 0.35 0 0 0.35zm-0.35 0.52l0 -0.17 0.35 0 0 0.17 -0.35 0z"/>
  </g>
  <g>
   <path class="fil2" d="M54.4 32.68l0 -0.36 0.18 0 0 0.36 -0.18 0zm-0.6 0l0 -0.36 0.3 0 0 0.36 -0.3 0zm-0.48 -0.36l0.17 0 0 0.36 -0.17 0 0 0 0 -0.36zm-0.18 0.36l0 -0.36 0.18 0 0 0.36 -0.18 0zm-0.72 0l0 -0.36 0.36 0 0 0.36 -0.36 0zm-0.73 0l0 -0.36 0.37 0 0 0.36 -0.37 0zm-0.72 0l0 -0.36 0.36 0 0 0.36 -0.36 0zm-0.72 0l0 -0.36 0.36 0 0 0.36 -0.36 0zm-0.72 0l0 -0.36 0.36 0 0 0.36 -0.36 0zm-0.72 0l0 -0.36 0.36 0 0 0.36 -0.36 0zm-0.72 0l0 -0.36 0.36 0 0 0.36 -0.36 0zm-0.72 0l0 -0.36 0.36 0 0 0.36 -0.36 0zm-0.72 0l0 -0.36 0.36 0 0 0.36 -0.36 0zm-0.55 -0.36l0.19 0 0 0.36 -0.19 0 0 -0.36z"/>
  </g>
  <g>
   <path class="fil2" d="M48.42 40.48l-0.02 -2.15 1.97 1.06 -1.95 1.09zm1.92 -1.27c0.1,0 0.18,0.08 0.18,0.18 0,0.1 -0.08,0.18 -0.18,0.18l0 -0.36zm-18.19 0.14l18.19 -0.14 0 0.36 -18.19 0.13 0 -0.35zm1.94 1.23l-1.96 -1.06 1.94 -1.09 0.02 2.15zm-1.94 -0.88c-0.1,0 -0.18,-0.08 -0.18,-0.18 0,-0.09 0.08,-0.17 0.18,-0.17l0 0.35z"/>
  </g>
  <rect class="fil3" x="37.62" y="31.62" width="7.07" height="7.07"/>
  <rect class="fil3" x="100.51" y="55.29" width="12.72" height="7.07"/>
  <rect class="fil3" x="115.7" y="43.81" width="12.72" height="7.07"/>
  <rect class="fil3" x="1.33" y="54.58" width="12.72" height="7.07"/>
  <rect class="fil3" x="81.26" y="28.97" width="15.54" height="7.07"/>
  <line class="fil4 str3" x1="40.85" y1="15.72" x2="12.54" y2= "21.9" />
  <g>
   <path class="fil2" d="M36.21 32.68l0 -0.36 0.18 0 0 0.36 -0.18 0zm-0.61 0l0 -0.36 0.31 0 0 0.36 -0.31 0zm-0.48 -0.36l0.18 0 0 0.36 -0.18 0 0 0 0 -0.36zm-0.18 0.36l0 -0.36 0.18 0 0 0.36 -0.18 0zm-0.72 0l0 -0.36 0.36 0 0 0.36 -0.36 0zm-0.72 0l0 -0.36 0.36 0 0 0.36 -0.36 0zm-0.72 0l0 -0.36 0.36 0 0 0.36 -0.36 0zm-0.72 0l0 -0.36 0.36 0 0 0.36 -0.36 0zm-0.72 0l0 -0.36 0.36 0 0 0.36 -0.36 0zm-0.72 0l0 -0.36 0.36 0 0 0.36 -0.36 0zm-0.72 0l0 -0.36 0.36 0 0 0.36 -0.36 0zm-0.73 0l0 -0.36 0.37 0 0 0.36 -0.37 0zm-0.72 0l0 -0.36 0.36 0 0 0.36 -0.36 0zm-0.54 -0.36l0.18 0 0 0.36 -0.18 0 0 -0.36z"/>
  </g>
  <g>
   <path class="fil2" d="M32.33 28.12l-0.36 0 0 -0.21 0.36 0 0 0.21zm0 0.86l-0.36 0 0 -0.43 0.36 0 0 0.43zm-0.36 0.64l0 -0.22 0.36 0 0 0.22 0 0 -0.36 0zm0.36 0.17l-0.36 0 0 -0.17 0.36 0 0 0.17zm0 0.7l-0.36 0 0 -0.35 0.36 0 0 0.35zm0 0.69l-0.36 0 0 -0.34 0.36 0 0 0.34zm0 0.7l-0.36 0 0 -0.35 0.36 0 0 0.35zm0 0.69l-0.36 0 0 -0.34 0.36 0 0 0.34zm0 0.7l-0.36 0 0 -0.35 0.36 0 0 0.35zm0 0.69l-0.36 0 0 -0.34 0.36 0 0 0.34zm0 0.7l-0.36 0 0 -0.35 0.36 0 0 0.35zm0 0.69l-0.36 0 0 -0.34 0.36 0 0 0.34zm0 0.7l-0.36 0 0 -0.35 0.36 0 0 0.35zm0 0.69l-0.36 0 0 -0.34 0.36 0 0 0.34zm0 0.7l-0.36 0 0 -0.35 0.36 0 0 0.35zm0 0.69l-0.36 0 0 -0.34 0.36 0 0 0.34zm0 0.7l-0.36 0 0 -0.35 0.36 0 0 0.35zm-0.36 0.52l0 -0.17 0.36 0 0 0.17 -0.36 0z"/>
  </g>
  <g>
   <path class="fil2" d="M29.49 31.3l1.52 -1.52 0.63 2.14 -2.15 -0.62zm2.25 0.48c0.07,0.07 0.07,0.18 0,0.25 -0.06,0.07 -0.18,0.07 -0.25,0l0.25 -0.25zm-5.3 -5.3l5.3 5.3 -0.25 0.25 -5.29 -5.3 0.24 -0.25zm-0.24 0.25c-0.07,-0.07 -0.07,-0.18 0,-0.25 0.06,-0.07 0.18,-0.07 0.24,0l-0.24 0.25z"/>
  </g>
  <rect class="fil3" x="19.25" y="26.61" width="7.07" height="7.07"/>
  <circle class="fil1 str1" cx="37.27" cy="52.82" r="0.88"/>
  <circle class="fil1 str1" cx="30.21" cy="52.82" r="0.88"/>
  <circle class="fil1 str1" cx="23.14" cy="52.82" r="0.88"/>
  <circle class="fil1 str1" cx="16.07" cy="52.82" r="0.88"/>
  <circle class="fil1 str1" cx="37.27" cy="12.19" r="0.88"/>
  <circle class="fil1 str1" cx="30.21" cy="12.19" r="0.88"/>
  <circle class="fil1 str1" cx="23.14" cy="12.19" r="0.88"/>
  <circle class="fil1 str1" cx="16.07" cy="12.19" r="0.88"/>
  <rect class="fil6" x="125.41" y="60.06" width="3.53" height="3.53"/>
 </g>
</svg>
