<?xml version="1.0" encoding="UTF-8"?>
<!DOCTYPE svg PUBLIC "-//W3C//DTD SVG 1.1//EN" "http://www.w3.org/Graphics/SVG/1.1/DTD/svg11.dtd">
<!-- Creator: CorelDRAW 2020 (64-Bit) -->
<svg xmlns="http://www.w3.org/2000/svg" xml:space="preserve" width="366px" height="181px" version="1.1" style="shape-rendering:geometricPrecision; text-rendering:geometricPrecision; image-rendering:optimizeQuality; fill-rule:evenodd; clip-rule:evenodd"
viewBox="0 0 25.82 12.77"
 xmlns:xlink="http://www.w3.org/1999/xlink"
 xmlns:xodm="http://www.corel.com/coreldraw/odm/2003">
 <defs>
  <style type="text/css">
   <![CDATA[
    .str2 {stroke:#2B2A29;stroke-width:0.07;stroke-miterlimit:22.9256}
    .str0 {stroke:#2B2A29;stroke-width:0.07;stroke-miterlimit:22.9256}
    .str1 {stroke:#3F3F3C;stroke-width:0.07;stroke-miterlimit:22.9256}
    .str3 {stroke:#2B2A29;stroke-width:0.07;stroke-miterlimit:22.9256;stroke-dasharray:0.070000 0.070000}
    .fil5 {fill:none}
    .fil6 {fill:#FEFEFE}
    .fil4 {fill:#FEFEFE}
    .fil2 {fill:lime}
    .fil1 {fill:#3F3F3C}
    .fil0 {fill:#C19A6B}
    .fil3 {fill:#2B2A29;fill-rule:nonzero}
   ]]>
  </style>
 </defs>
 <g id="Capa_x0020_1">
  <metadata id="CorelCorpID_0Corel-Layer"/>
  <rect class="fil0 str0" x="0.04" y="0.04" width="25.75" height="12.7"/>
  <circle class="fil1 str1" transform="matrix(6.96894E-15 0.263133 -0.263133 6.96894E-15 4.09186 3.03365)" r="0.67"/>
  <circle class="fil1 str1" transform="matrix(6.96894E-15 0.263133 -0.263133 6.96894E-15 4.09186 4.44465)" r="0.67"/>
  <circle class="fil1 str1" transform="matrix(6.96894E-15 0.263133 -0.263133 6.96894E-15 4.09186 5.85558)" r="0.67"/>
  <circle class="fil1 str1" transform="matrix(6.96894E-15 0.263133 -0.263133 6.96894E-15 4.09186 7.2665)" r="0.67"/>
  <circle class="fil1 str1" transform="matrix(6.96894E-15 0.263133 -0.263133 6.96894E-15 4.09186 8.6775)" r="0.67"/>
  <circle class="fil1 str1" transform="matrix(6.96894E-15 0.263133 -0.263133 6.96894E-15 21.0231 3.03365)" r="0.67"/>
  <circle class="fil1 str1" transform="matrix(6.96894E-15 0.263133 -0.263133 6.96894E-15 21.0231 4.44465)" r="0.67"/>
  <circle class="fil1 str1" transform="matrix(6.96894E-15 0.263133 -0.263133 6.96894E-15 21.0231 5.85558)" r="0.67"/>
  <rect class="fil2" transform="matrix(3.08792E-14 1.16593 -1.14311 3.02747E-14 0.776119 0.0706168)" width="0.61" height="0.62"/>
  <g>
   <path class="fil3" d="M4.65 5.63l0 0.43 -0.39 -0.22 0.39 -0.21zm-0.38 0.25c-0.02,0 -0.04,-0.02 -0.04,-0.04 0,-0.02 0.02,-0.03 0.04,-0.03l0 0.07zm16.58 0.02l-16.58 -0.02 0 -0.07 16.58 0.02 0 0.07zm-0.39 -0.25l0.39 0.22 -0.39 0.21 0 -0.43zm0.39 0.18c0.02,0 0.03,0.02 0.03,0.04 0,0.02 -0.01,0.03 -0.03,0.03l0 -0.07z"/>
  </g>
  <rect class="fil4" x="11.36" y="4.2" width="3.1" height="1.41"/>
  <rect class="fil4" x="22.22" y="1.27" width="2.54" height="1.41"/>
  <g>
   <path class="fil3" d="M21.59 2.81l-0.01 0.43 -0.39 -0.22 0.4 -0.21zm-0.39 0.25c-0.02,0 -0.04,-0.02 -0.04,-0.04 0,-0.02 0.02,-0.03 0.04,-0.03l0 0.07zm4.58 0.02l-4.58 -0.02 0 -0.07 4.59 0.02 -0.01 0.07zm-0.38 -0.25l0.39 0.22 -0.39 0.21 0 -0.43zm0.39 0.18c0.01,0 0.03,0.02 0.03,0.04 0,0.02 -0.02,0.03 -0.04,0.03l0.01 -0.07z"/>
  </g>
  <g>
   <path class="fil3" d="M4.32 0.42l-0.43 0 0.22 -0.39 0.21 0.39zm-0.25 -0.39c0,-0.01 0.02,-0.03 0.04,-0.03 0.01,0 0.03,0.02 0.03,0.04l-0.07 -0.01zm-0.03 2.83l0.03 -2.83 0.07 0.01 -0.03 2.82 -0.07 0zm0.26 -0.39l-0.22 0.39 -0.21 -0.39 0.43 0zm-0.19 0.39c0,0.02 -0.01,0.03 -0.03,0.03 -0.02,0 -0.04,-0.01 -0.04,-0.03l0.07 0z"/>
  </g>
  <rect class="fil4" x="4.52" y="0.74" width="2.54" height="1.41"/>
  <rect class="fil4" x="0.71" y="3.28" width="2.54" height="1.41"/>
  <g>
   <path class="fil3" d="M0.42 2.81l0 0.43 -0.39 -0.22 0.39 -0.21zm-0.38 0.25c-0.02,0 -0.04,-0.02 -0.04,-0.04 0,-0.02 0.02,-0.03 0.04,-0.03l0 0.07zm3.88 0.02l-3.88 -0.02 0 -0.07 3.88 0.02 0 0.07zm-0.39 -0.25l0.39 0.22 -0.39 0.21 0 -0.43zm0.39 0.18c0.02,0 0.03,0.02 0.03,0.04 0,0.02 -0.02,0.03 -0.03,0.03l0 -0.07z"/>
  </g>
  <rect class="fil4" x="4.59" y="10.12" width="2.54" height="1.41"/>
  <g>
   <path class="fil3" d="M4.32 9.24l-0.43 0 0.21 -0.39 0.22 0.39zm-0.25 -0.39c0,-0.02 0.02,-0.03 0.04,-0.03 0.01,0 0.03,0.01 0.03,0.03l-0.07 0zm-0.03 3.88l0.03 -3.88 0.07 0 -0.03 3.88 -0.07 0zm0.26 -0.38l-0.22 0.39 -0.21 -0.39 0.43 0zm-0.19 0.38c0,0.02 -0.01,0.04 -0.03,0.04 -0.02,0 -0.04,-0.02 -0.04,-0.04l0.07 0z"/>
  </g>
  <rect class="fil5 str2" x="9.84" y="7.41" width="8.47" height="4.23"/>
  <circle class="fil6" cx="10.76" cy="9.52" r="0.71"/>
  <circle class="fil6" cx="14.39" cy="9.52" r="0.71"/>
  <g>
   <path class="fil3" d="M10.72 10.39l0.07 0 0 0.04 -0.07 0 0 -0.04zm0 -0.17l0.07 0 0 0.08 -0.07 0 0 -0.08zm0.07 -0.13l0 0.04 -0.07 0 0 -0.04 0 0 0.07 0zm-0.07 -0.03l0.07 0 0 0.03 -0.07 0 0 -0.03zm0 -0.14l0.07 0 0 0.07 -0.07 0 0 -0.07zm0 -0.14l0.07 0 0 0.07 -0.07 0 0 -0.07zm0 -0.14l0.07 0 0 0.07 -0.07 0 0 -0.07zm0 -0.14l0.07 0 0 0.07 -0.07 0 0 -0.07zm0 -0.14l0.07 0 0 0.07 -0.07 0 0 -0.07zm0 -0.14l0.07 0 0 0.07 -0.07 0 0 -0.07zm0 -0.14l0.07 0 0 0.07 -0.07 0 0 -0.07zm0 -0.13l0.07 0 0 0.06 -0.07 0 0 -0.06zm0 -0.14l0.07 0 0 0.07 -0.07 0 0 -0.07zm0 -0.14l0.07 0 0 0.07 -0.07 0 0 -0.07zm0 -0.14l0.07 0 0 0.07 -0.07 0 0 -0.07zm0 -0.14l0.07 0 0 0.07 -0.07 0 0 -0.07zm0 -0.14l0.07 0 0 0.07 -0.07 0 0 -0.07zm0.07 -0.1l0 0.03 -0.07 0 0 -0.03 0.07 0z"/>
  </g>
  <g>
   <path class="fil3" d="M9.95 9.49l0 0.07 -0.04 0 0 -0.07 0.04 0zm0.12 0l0 0.07 -0.06 0 0 -0.07 0.06 0zm0.09 0.07l-0.03 0 0 -0.07 0.03 0 0 0 0 0.07zm0.04 -0.07l0 0.07 -0.04 0 0 -0.07 0.04 0zm0.14 0l0 0.07 -0.07 0 0 -0.07 0.07 0zm0.15 0l0 0.07 -0.07 0 0 -0.07 0.07 0zm0.14 0l0 0.07 -0.07 0 0 -0.07 0.07 0zm0.15 0l0 0.07 -0.08 0 0 -0.07 0.08 0zm0.14 0l0 0.07 -0.07 0 0 -0.07 0.07 0zm0.14 0l0 0.07 -0.07 0 0 -0.07 0.07 0zm0.15 0l0 0.07 -0.07 0 0 -0.07 0.07 0zm0.14 0l0 0.07 -0.07 0 0 -0.07 0.07 0zm0.15 0l0 0.07 -0.08 0 0 -0.07 0.08 0zm0.1 0.07l-0.03 0 0 -0.07 0.03 0 0 0.07z"/>
  </g>
  <g>
   <path class="fil3" d="M11.14 7.93l0.01 0.43 -0.4 -0.21 0.39 -0.22zm-0.38 0.25c-0.02,0 -0.04,-0.01 -0.04,-0.03 0,-0.02 0.02,-0.04 0.04,-0.04l0 0.07zm3.63 -0.02l-3.63 0.02 0 -0.07 3.63 -0.02 0 0.07zm-0.39 -0.25l0.4 0.21 -0.39 0.22 -0.01 -0.43zm0.39 0.18c0.02,0 0.04,0.01 0.04,0.03 0,0.02 -0.02,0.04 -0.04,0.04l0 -0.07z"/>
  </g>
  <rect class="fil4" x="11.89" y="8.29" width="1.41" height="1.41"/>
  <g>
   <path class="fil3" d="M13.58 9.49l0 0.07 -0.03 0 0 -0.07 0.03 0zm0.12 0l0 0.07 -0.06 0 0 -0.07 0.06 0zm0.1 0.07l-0.04 0 0 -0.07 0.04 0 0 0 0 0.07zm0.03 -0.07l0 0.07 -0.03 0 0 -0.07 0.03 0zm0.15 0l0 0.07 -0.07 0 0 -0.07 0.07 0zm0.14 0l0 0.07 -0.07 0 0 -0.07 0.07 0zm0.15 0l0 0.07 -0.08 0 0 -0.07 0.08 0zm0.14 0l0 0.07 -0.07 0 0 -0.07 0.07 0zm0.14 0l0 0.07 -0.07 0 0 -0.07 0.07 0zm0.15 0l0 0.07 -0.07 0 0 -0.07 0.07 0zm0.14 0l0 0.07 -0.07 0 0 -0.07 0.07 0zm0.15 0l0 0.07 -0.08 0 0 -0.07 0.08 0zm0.14 0l0 0.07 -0.07 0 0 -0.07 0.07 0zm0.11 0.07l-0.04 0 0 -0.07 0.04 0 0 0.07z"/>
  </g>
  <g>
   <path class="fil3" d="M14.36 10.4l0.07 0 0 0.04 -0.07 0 0 -0.04zm0 -0.17l0.07 0 0 0.08 -0.07 0 0 -0.08zm0.07 -0.13l0 0.04 -0.07 0 0 -0.04 0 0 0.07 0zm-0.07 -0.04l0.07 0 0 0.04 -0.07 0 0 -0.04zm0 -0.13l0.07 0 0 0.06 -0.07 0 0 -0.06zm0 -0.14l0.07 0 0 0.07 -0.07 0 0 -0.07zm0 -0.14l0.07 0 0 0.07 -0.07 0 0 -0.07zm0 -0.14l0.07 0 0 0.07 -0.07 0 0 -0.07zm0 -0.14l0.07 0 0 0.07 -0.07 0 0 -0.07zm0 -0.14l0.07 0 0 0.07 -0.07 0 0 -0.07zm0 -0.14l0.07 0 0 0.07 -0.07 0 0 -0.07zm0 -0.14l0.07 0 0 0.07 -0.07 0 0 -0.07zm0 -0.14l0.07 0 0 0.07 -0.07 0 0 -0.07zm0 -0.13l0.07 0 0 0.07 -0.07 0 0 -0.07zm0 -0.14l0.07 0 0 0.07 -0.07 0 0 -0.07zm0 -0.14l0.07 0 0 0.07 -0.07 0 0 -0.07zm0 -0.14l0.07 0 0 0.07 -0.07 0 0 -0.07zm0.07 -0.1l0 0.03 -0.07 0 0 -0.03 0.07 0z"/>
  </g>
  <g>
   <path class="fil3" d="M14.92 9.76l-0.3 0.31 -0.13 -0.43 0.43 0.12zm-0.45 -0.09c-0.01,-0.02 -0.01,-0.04 0,-0.05 0.02,-0.02 0.04,-0.02 0.05,0l-0.05 0.05zm1.06 1.06l-1.06 -1.06 0.05 -0.05 1.06 1.06 -0.05 0.05zm0.05 -0.05c0.01,0.01 0.01,0.03 0,0.05 -0.01,0.01 -0.04,0.01 -0.05,0l0.05 -0.05z"/>
  </g>
  <rect class="fil4" x="15.56" y="9.29" width="1.41" height="1.41"/>
  <line class="fil5 str3" x1="20.32" y1="9.3" x2="18.31" y2= "11.64" />
  <rect class="fil5 str2" transform="matrix(3.01739E-14 1.1393 -1 2.64845E-14 21.7286 6.56095)" width="2.47" height="1.41"/>
  <circle class="fil1 str1" transform="matrix(6.96894E-15 0.263133 -0.263133 6.96894E-15 21.0231 7.2665)" r="0.67"/>
  <circle class="fil1 str1" transform="matrix(6.96894E-15 0.263133 -0.263133 6.96894E-15 21.0231 8.6775)" r="0.67"/>
  <line class="fil5 str3" x1="20.32" y1="6.56" x2="18.31" y2= "7.41" />
 </g>
</svg>
