<?xml version="1.0" encoding="UTF-8"?>
<!DOCTYPE svg PUBLIC "-//W3C//DTD SVG 1.1//EN" "http://www.w3.org/Graphics/SVG/1.1/DTD/svg11.dtd">
<!-- Creator: CorelDRAW 2020 (64-Bit) -->
<svg xmlns="http://www.w3.org/2000/svg" xml:space="preserve" width="366px" height="181px" version="1.1" style="shape-rendering:geometricPrecision; text-rendering:geometricPrecision; image-rendering:optimizeQuality; fill-rule:evenodd; clip-rule:evenodd"
viewBox="0 0 102.26 50.57"
 xmlns:xlink="http://www.w3.org/1999/xlink"
 xmlns:xodm="http://www.corel.com/coreldraw/odm/2003">
 <defs>
  <style type="text/css">
   <![CDATA[
    .str2 {stroke:#2B2A29;stroke-width:0.28;stroke-miterlimit:22.9256}
    .str0 {stroke:#2B2A29;stroke-width:0.28;stroke-miterlimit:22.9256}
    .str1 {stroke:#3F3F3C;stroke-width:0.28;stroke-miterlimit:22.9256}
    .str3 {stroke:#2B2A29;stroke-width:0.28;stroke-miterlimit:22.9256;stroke-dasharray:0.280000 0.840000}
    .fil4 {fill:none}
    .fil5 {fill:#FEFEFE}
    .fil3 {fill:#FEFEFE}
    .fil6 {fill:lime}
    .fil1 {fill:#3F3F3C}
    .fil0 {fill:#C19A6B}
    .fil2 {fill:#2B2A29;fill-rule:nonzero}
   ]]>
  </style>
 </defs>
 <g id="Capa_x0020_1">
  <metadata id="CorelCorpID_0Corel-Layer"/>
  <rect class="fil0 str0" x="0.14" y="0.14" width="101.98" height="50.29"/>
  <circle class="fil1 str1" cx="90.94" cy="40.93" r="0.7"/>
  <circle class="fil1 str1" cx="85.35" cy="40.93" r="0.7"/>
  <circle class="fil1 str1" cx="79.77" cy="40.93" r="0.7"/>
  <circle class="fil1 str1" cx="74.18" cy="40.93" r="0.7"/>
  <circle class="fil1 str1" cx="68.59" cy="40.93" r="0.7"/>
  <circle class="fil1 str1" cx="63" cy="40.93" r="0.7"/>
  <circle class="fil1 str1" cx="57.41" cy="40.93" r="0.7"/>
  <circle class="fil1 str1" cx="51.83" cy="40.93" r="0.7"/>
  <circle class="fil1 str1" cx="46.24" cy="40.93" r="0.7"/>
  <circle class="fil1 str1" cx="40.65" cy="40.93" r="0.7"/>
  <circle class="fil1 str1" cx="35.06" cy="40.93" r="0.7"/>
  <circle class="fil1 str1" cx="90.94" cy="8.8" r="0.7"/>
  <circle class="fil1 str1" cx="85.35" cy="8.8" r="0.7"/>
  <circle class="fil1 str1" cx="79.77" cy="8.8" r="0.7"/>
  <circle class="fil1 str1" cx="74.18" cy="8.8" r="0.7"/>
  <circle class="fil1 str1" cx="68.59" cy="8.8" r="0.7"/>
  <circle class="fil1 str1" cx="63" cy="8.8" r="0.7"/>
  <circle class="fil1 str1" cx="57.41" cy="8.8" r="0.7"/>
  <circle class="fil1 str1" cx="51.83" cy="8.8" r="0.7"/>
  <circle class="fil1 str1" cx="46.24" cy="8.8" r="0.7"/>
  <circle class="fil1 str1" cx="40.65" cy="8.8" r="0.7"/>
  <circle class="fil1 str1" cx="35.06" cy="8.8" r="0.7"/>
  <g>
   <path class="fil2" d="M91.87 1.68l-1.69 -0.02 0.87 -1.54 0.82 1.56zm-0.96 -1.54c0,-0.08 0.06,-0.14 0.14,-0.14 0.07,0 0.14,0.07 0.13,0.14l-0.27 0zm-0.11 7.96l0.11 -7.96 0.27 0 -0.1 7.97 -0.28 -0.01zm1.01 -1.51l-0.87 1.53 -0.83 -1.56 1.7 0.03zm-0.73 1.52c0,0.07 -0.06,0.13 -0.14,0.13 -0.08,0 -0.14,-0.06 -0.14,-0.14l0.28 0.01z"/>
  </g>
  <g>
   <path class="fil2" d="M100.58 9.74l0.02 -1.7 1.53 0.87 -1.55 0.83zm1.54 -0.97c0.08,0 0.14,0.06 0.14,0.14 0,0.07 -0.07,0.14 -0.14,0.13l0 -0.27zm-10.48 -0.11l10.48 0.11 0 0.27 -10.48 -0.1 0 -0.28zm1.52 1.01l-1.54 -0.87 1.56 -0.83 -0.02 1.7zm-1.52 -0.73c-0.08,0 -0.14,-0.06 -0.14,-0.14 0,-0.08 0.06,-0.14 0.14,-0.14l0 0.28z"/>
  </g>
  <g>
   <path class="fil2" d="M10.48 9.64l0.01 -1.7 1.54 0.86 -1.55 0.84zm1.54 -0.98c0.07,0 0.13,0.07 0.13,0.14 0,0.08 -0.06,0.14 -0.14,0.14l0.01 -0.28zm-11.88 -0.1l11.88 0.1 -0.01 0.28 -11.87 -0.1 0 -0.28zm1.52 1l-1.54 -0.86 1.55 -0.84 -0.01 1.7zm-1.52 -0.72c-0.08,0 -0.14,-0.07 -0.14,-0.14 0,-0.08 0.06,-0.14 0.14,-0.14l0 0.28z"/>
  </g>
  <g>
   <path class="fil2" d="M91.77 43.17l-1.7 -0.02 0.87 -1.54 0.83 1.56zm-0.97 -1.54c0,-0.08 0.07,-0.14 0.14,-0.14 0.08,0 0.14,0.06 0.14,0.14l-0.28 0zm-0.1 8.8l0.1 -8.8 0.28 0 -0.1 8.8 -0.28 0zm1 -1.52l-0.86 1.54 -0.83 -1.56 1.69 0.02zm-0.72 1.52c0,0.08 -0.07,0.14 -0.14,0.14 -0.08,0 -0.14,-0.06 -0.14,-0.14l0.28 0z"/>
  </g>
  <rect class="fil3" x="79.63" y="43.31" width="10.06" height="5.59"/>
  <g>
   <path class="fil2" d="M63.95 11.03l-1.7 -0.01 0.86 -1.54 0.84 1.55zm-0.98 -1.53c0,-0.08 0.06,-0.14 0.14,-0.14 0.07,0 0.14,0.06 0.14,0.14l-0.28 0zm-0.11 30.73l0.11 -30.73 0.28 0 -0.11 30.73 -0.28 0zm1 -1.52l-0.86 1.54 -0.84 -1.55 1.7 0.01zm-0.72 1.52c0,0.08 -0.06,0.14 -0.14,0.14 -0.08,0 -0.14,-0.06 -0.14,-0.14l0.28 0z"/>
  </g>
  <rect class="fil4 str2" x="32.3" y="38.14" width="11.14" height="5.59"/>
  <g>
   <path class="fil2" d="M43.3 37.95l0.28 0 0 0.19 -0.28 0 0 -0.19zm0.28 -0.54l0 0.18 -0.28 0 0 -0.18 0 0 0.28 0zm-0.28 -0.15l0.28 0 0 0.15 -0.28 0 0 -0.15zm0 -0.59l0.28 0 0 0.29 -0.28 0 0 -0.29zm0 -0.6l0.28 0 0 0.3 -0.28 0 0 -0.3zm0 -0.59l0.28 0 0 0.3 -0.28 0 0 -0.3zm0 -0.6l0.28 0 0 0.3 -0.28 0 0 -0.3zm0 -0.59l0.28 0 0 0.3 -0.28 0 0 -0.3zm0 -0.59l0.28 0 0 0.29 -0.28 0 0 -0.29zm0.28 -0.45l0 0.15 -0.28 0 0 -0.15 0.28 0z"/>
  </g>
  <rect class="fil4 str2" x="9.92" y="16.48" width="33.53" height="16.77"/>
  <circle class="fil5" cx="39.81" cy="24.87" r="2.79"/>
  <circle class="fil5" cx="25.42" cy="24.87" r="2.79"/>
  <g>
   <path class="fil2" d="M39.67 28.3l0.28 0 0 0.16 -0.28 0 0 -0.16zm0 -0.68l0.28 0 0 0.34 -0.28 0 0 -0.34zm0.28 -0.5l0 0.16 -0.28 0 0 -0.16 0 0 0.28 0zm-0.28 -0.14l0.28 0 0 0.14 -0.28 0 0 -0.14zm0 -0.55l0.28 0 0 0.27 -0.28 0 0 -0.27zm0 -0.55l0.28 0 0 0.27 -0.28 0 0 -0.27zm0 -0.55l0.28 0 0 0.27 -0.28 0 0 -0.27zm0 -0.55l0.28 0 0 0.27 -0.28 0 0 -0.27zm0 -0.55l0.28 0 0 0.27 -0.28 0 0 -0.27zm0 -0.55l0.28 0 0 0.27 -0.28 0 0 -0.27zm0 -0.55l0.28 0 0 0.27 -0.28 0 0 -0.27zm0 -0.55l0.28 0 0 0.27 -0.28 0 0 -0.27zm0 -0.55l0.28 0 0 0.27 -0.28 0 0 -0.27zm0 -0.55l0.28 0 0 0.27 -0.28 0 0 -0.27zm0 -0.55l0.28 0 0 0.27 -0.28 0 0 -0.27zm0 -0.55l0.28 0 0 0.27 -0.28 0 0 -0.27zm0 -0.55l0.28 0 0 0.27 -0.28 0 0 -0.27zm0.28 -0.41l0 0.13 -0.28 0 0 -0.13 0.28 0z"/>
  </g>
  <g>
   <path class="fil2" d="M43.03 25.01l0 -0.28 0.14 0 0 0.28 -0.14 0zm-0.48 0l0 -0.28 0.24 0 0 0.28 -0.24 0zm-0.38 -0.28l0.13 0 0 0.28 -0.13 0 0 0 0 -0.28zm-0.15 0.28l0 -0.28 0.15 0 0 0.28 -0.15 0zm-0.57 0l0 -0.28 0.29 0 0 0.28 -0.29 0zm-0.57 0l0 -0.28 0.29 0 0 0.28 -0.29 0zm-0.57 0l0 -0.28 0.29 0 0 0.28 -0.29 0zm-0.57 0l0 -0.28 0.29 0 0 0.28 -0.29 0zm-0.57 0l0 -0.28 0.29 0 0 0.28 -0.29 0zm-0.57 0l0 -0.28 0.29 0 0 0.28 -0.29 0zm-0.57 0l0 -0.28 0.29 0 0 0.28 -0.29 0zm-0.57 0l0 -0.28 0.29 0 0 0.28 -0.29 0zm-0.57 0l0 -0.28 0.29 0 0 0.28 -0.29 0zm-0.43 -0.28l0.15 0 0 0.28 -0.15 0 0 -0.28z"/>
  </g>
  <g>
   <path class="fil2" d="M38.28 20.26l0.01 -1.7 1.54 0.86 -1.55 0.84zm1.53 -0.98c0.08,0 0.14,0.06 0.14,0.14 0,0.08 -0.06,0.14 -0.14,0.14l0 -0.28zm-14.38 -0.11l14.38 0.11 0 0.28 -14.39 -0.11 0.01 -0.28zm1.52 1l-1.54 -0.86 1.55 -0.84 -0.01 1.7zm-1.53 -0.72c-0.07,0 -0.14,-0.06 -0.14,-0.14 0,-0.07 0.07,-0.14 0.15,-0.14l-0.01 0.28z"/>
  </g>
  <rect class="fil3" x="29.76" y="19.98" width="5.59" height="5.59"/>
  <rect class="fil3" x="79.49" y="1.26" width="10.06" height="5.59"/>
  <rect class="fil3" x="91.5" y="10.34" width="10.06" height="5.59"/>
  <rect class="fil3" x="1.05" y="1.82" width="10.06" height="5.59"/>
  <rect class="fil3" x="64.26" y="22.07" width="12.29" height="5.59"/>
  <line class="fil4 str3" x1="32.3" y1="38.14" x2="9.92" y2= "33.25" />
  <g>
   <path class="fil2" d="M28.64 25.01l0 -0.28 0.14 0 0 0.28 -0.14 0zm-0.48 0l0 -0.28 0.24 0 0 0.28 -0.24 0zm-0.38 -0.28l0.14 0 0 0.28 -0.14 0 0 0 0 -0.28zm-0.15 0.28l0 -0.28 0.15 0 0 0.28 -0.15 0zm-0.57 0l0 -0.28 0.29 0 0 0.28 -0.29 0zm-0.57 0l0 -0.28 0.29 0 0 0.28 -0.29 0zm-0.57 0l0 -0.28 0.29 0 0 0.28 -0.29 0zm-0.57 0l0 -0.28 0.29 0 0 0.28 -0.29 0zm-0.57 0l0 -0.28 0.29 0 0 0.28 -0.29 0zm-0.57 0l0 -0.28 0.29 0 0 0.28 -0.29 0zm-0.57 0l0 -0.28 0.29 0 0 0.28 -0.29 0zm-0.57 0l0 -0.28 0.29 0 0 0.28 -0.29 0zm-0.57 0l0 -0.28 0.29 0 0 0.28 -0.29 0zm-0.43 -0.28l0.15 0 0 0.28 -0.15 0 0 -0.28z"/>
  </g>
  <g>
   <path class="fil2" d="M25.28 28.33l0.28 0 0 0.17 -0.28 0 0 -0.17zm0 -0.68l0.28 0 0 0.34 -0.28 0 0 -0.34zm0.28 -0.5l0 0.17 -0.28 0 0 -0.17 0 0 0.28 0zm-0.28 -0.14l0.28 0 0 0.14 -0.28 0 0 -0.14zm0 -0.55l0.28 0 0 0.27 -0.28 0 0 -0.27zm0 -0.55l0.28 0 0 0.27 -0.28 0 0 -0.27zm0 -0.55l0.28 0 0 0.27 -0.28 0 0 -0.27zm0 -0.55l0.28 0 0 0.27 -0.28 0 0 -0.27zm0 -0.55l0.28 0 0 0.27 -0.28 0 0 -0.27zm0 -0.55l0.28 0 0 0.28 -0.28 0 0 -0.28zm0 -0.55l0.28 0 0 0.28 -0.28 0 0 -0.28zm0 -0.55l0.28 0 0 0.28 -0.28 0 0 -0.28zm0 -0.55l0.28 0 0 0.28 -0.28 0 0 -0.28zm0 -0.55l0.28 0 0 0.28 -0.28 0 0 -0.28zm0 -0.55l0.28 0 0 0.28 -0.28 0 0 -0.28zm0 -0.55l0.28 0 0 0.28 -0.28 0 0 -0.28zm0 -0.55l0.28 0 0 0.28 -0.28 0 0 -0.28zm0.28 -0.41l0 0.14 -0.28 0 0 -0.14 0.28 0z"/>
  </g>
  <g>
   <path class="fil2" d="M24.53 27.02l-1.21 -1.2 1.7 -0.49 -0.49 1.69zm0.38 -1.78c0.05,-0.06 0.14,-0.06 0.19,0 0.06,0.05 0.06,0.14 0,0.2l-0.19 -0.2zm-4.19 4.19l4.19 -4.19 0.19 0.2 -4.19 4.19 -0.19 -0.2zm0.19 0.2c-0.05,0.05 -0.14,0.05 -0.19,0 -0.06,-0.06 -0.06,-0.14 0,-0.2l0.19 0.2z"/>
  </g>
  <rect class="fil3" x="15.23" y="23.94" width="5.59" height="5.59"/>
  <circle class="fil1 str1" cx="29.48" cy="8.8" r="0.7"/>
  <circle class="fil1 str1" cx="23.89" cy="8.8" r="0.7"/>
  <circle class="fil1 str1" cx="18.3" cy="8.8" r="0.7"/>
  <circle class="fil1 str1" cx="12.71" cy="8.8" r="0.7"/>
  <circle class="fil1 str1" cx="29.48" cy="40.93" r="0.7"/>
  <circle class="fil1 str1" cx="23.89" cy="40.93" r="0.7"/>
  <circle class="fil1 str1" cx="18.3" cy="40.93" r="0.7"/>
  <circle class="fil1 str1" cx="12.71" cy="40.93" r="0.7"/>
  <rect class="fil6" x="99.18" y="0.28" width="2.79" height="2.79"/>
 </g>
</svg>
