<?xml version="1.0" encoding="UTF-8"?>
<!DOCTYPE svg PUBLIC "-//W3C//DTD SVG 1.1//EN" "http://www.w3.org/Graphics/SVG/1.1/DTD/svg11.dtd">
<!-- Creator: CorelDRAW 2020 (64-Bit) -->
<svg xmlns="http://www.w3.org/2000/svg" xml:space="preserve" width="366px" height="181px" version="1.1" style="shape-rendering:geometricPrecision; text-rendering:geometricPrecision; image-rendering:optimizeQuality; fill-rule:evenodd; clip-rule:evenodd"
viewBox="0 0 31.64 15.65"
 xmlns:xlink="http://www.w3.org/1999/xlink"
 xmlns:xodm="http://www.corel.com/coreldraw/odm/2003">
 <defs>
  <style type="text/css">
   <![CDATA[
    .str2 {stroke:#2B2A29;stroke-width:0.09;stroke-miterlimit:22.9256}
    .str0 {stroke:#2B2A29;stroke-width:0.09;stroke-miterlimit:22.9256}
    .str1 {stroke:#3F3F3C;stroke-width:0.09;stroke-miterlimit:22.9256}
    .str3 {stroke:#2B2A29;stroke-width:0.09;stroke-miterlimit:22.9256;stroke-dasharray:0.090000 0.090000}
    .fil5 {fill:none}
    .fil6 {fill:#FEFEFE}
    .fil4 {fill:#FEFEFE}
    .fil2 {fill:lime}
    .fil1 {fill:#3F3F3C}
    .fil0 {fill:#C19A6B}
    .fil3 {fill:#2B2A29;fill-rule:nonzero}
   ]]>
  </style>
 </defs>
 <g id="Capa_x0020_1">
  <metadata id="CorelCorpID_0Corel-Layer"/>
  <rect class="fil0 str0" x="0.04" y="0.04" width="31.55" height="15.56"/>
  <circle class="fil1 str1" transform="matrix(-6.96894E-15 -0.263133 0.263133 -6.96894E-15 26.6244 11.9291)" r="0.82"/>
  <circle class="fil1 str1" transform="matrix(-6.96894E-15 -0.263133 0.263133 -6.96894E-15 26.6244 10.2002)" r="0.82"/>
  <circle class="fil1 str1" transform="matrix(-6.96894E-15 -0.263133 0.263133 -6.96894E-15 26.6244 8.47139)" r="0.82"/>
  <circle class="fil1 str1" transform="matrix(-6.96894E-15 -0.263133 0.263133 -6.96894E-15 26.6244 6.74256)" r="0.82"/>
  <circle class="fil1 str1" transform="matrix(-6.96894E-15 -0.263133 0.263133 -6.96894E-15 26.6244 5.01363)" r="0.82"/>
  <circle class="fil1 str1" transform="matrix(-6.96894E-15 -0.263133 0.263133 -6.96894E-15 5.8783 11.9291)" r="0.82"/>
  <circle class="fil1 str1" transform="matrix(-6.96894E-15 -0.263133 0.263133 -6.96894E-15 5.8783 10.2002)" r="0.82"/>
  <circle class="fil1 str1" transform="matrix(-6.96894E-15 -0.263133 0.263133 -6.96894E-15 5.8783 8.47139)" r="0.82"/>
  <rect class="fil2" transform="matrix(-3.08792E-14 -1.16593 1.14311 -3.02747E-14 30.6873 15.5598)" width="0.74" height="0.76"/>
  <g>
   <path class="fil3" d="M25.94 8.75l0 -0.53 0.47 0.27 -0.47 0.26zm0.47 -0.31c0.02,0 0.04,0.02 0.04,0.05 0,0.02 -0.02,0.04 -0.04,0.04l0 -0.09zm-20.32 -0.03l20.32 0.03 0 0.09 -20.32 -0.03 0 -0.09zm0.48 0.31l-0.48 -0.26 0.48 -0.27 0 0.53zm-0.48 -0.22c-0.02,0 -0.04,-0.02 -0.04,-0.04 0,-0.03 0.02,-0.05 0.04,-0.05l0 0.09z"/>
  </g>
  <rect class="fil4" x="13.92" y="8.77" width="3.8" height="1.73"/>
  <rect class="fil4" x="1.3" y="12.36" width="3.11" height="1.73"/>
  <g>
   <path class="fil3" d="M5.19 12.21l0 -0.53 0.48 0.27 -0.48 0.26zm0.47 -0.31c0.03,0 0.05,0.02 0.05,0.05 0,0.02 -0.02,0.04 -0.05,0.04l0 -0.09zm-5.62 -0.03l5.62 0.03 0 0.09 -5.62 -0.03 0 -0.09zm0.47 0.31l-0.47 -0.27 0.48 -0.26 -0.01 0.53zm-0.47 -0.22c-0.02,0 -0.04,-0.02 -0.04,-0.05 0,-0.02 0.02,-0.04 0.04,-0.04l0 0.09z"/>
  </g>
  <g>
   <path class="fil3" d="M26.35 15.13l0.53 0 -0.27 0.48 -0.26 -0.48zm0.3 0.47c0,0.03 -0.02,0.05 -0.04,0.05 -0.03,0 -0.04,-0.02 -0.04,-0.05l0.08 0zm0.03 -3.45l-0.03 3.45 -0.08 0 0.03 -3.46 0.08 0.01zm-0.31 0.47l0.27 -0.48 0.26 0.48 -0.53 0zm0.23 -0.48c0,-0.02 0.02,-0.04 0.04,-0.04 0.02,0 0.04,0.02 0.04,0.05l-0.08 -0.01z"/>
  </g>
  <rect class="fil4" x="22.99" y="13.01" width="3.11" height="1.73"/>
  <rect class="fil4" x="27.66" y="9.9" width="3.11" height="1.73"/>
  <g>
   <path class="fil3" d="M31.12 12.21l0 -0.53 0.48 0.27 -0.48 0.26zm0.48 -0.31c0.02,0 0.04,0.02 0.04,0.05 0,0.02 -0.02,0.04 -0.05,0.04l0.01 -0.09zm-4.76 -0.03l4.76 0.03 -0.01 0.09 -4.75 -0.03 0 -0.09zm0.47 0.31l-0.48 -0.27 0.48 -0.26 0 0.53zm-0.47 -0.22c-0.02,0 -0.04,-0.02 -0.04,-0.05 0,-0.02 0.02,-0.04 0.04,-0.04l0 0.09z"/>
  </g>
  <rect class="fil4" x="22.91" y="1.51" width="3.11" height="1.73"/>
  <g>
   <path class="fil3" d="M26.35 4.32l0.52 0.01 -0.26 0.47 -0.26 -0.48zm0.3 0.48c0,0.02 -0.02,0.04 -0.04,0.04 -0.03,0 -0.04,-0.02 -0.04,-0.04l0.08 0zm0.03 -4.76l-0.03 4.76 -0.08 0 0.03 -4.76 0.08 0zm-0.31 0.47l0.27 -0.47 0.26 0.48 -0.53 -0.01zm0.23 -0.47c0,-0.02 0.02,-0.04 0.04,-0.04 0.02,0 0.04,0.02 0.04,0.04l-0.08 0z"/>
  </g>
  <rect class="fil5 str2" x="9.21" y="1.38" width="10.37" height="5.19"/>
  <circle class="fil6" cx="18.46" cy="3.98" r="0.86"/>
  <circle class="fil6" cx="14" cy="3.98" r="0.86"/>
  <g>
   <path class="fil3" d="M18.5 2.92l-0.09 0 0 -0.06 0.09 0 0 0.06zm0 0.2l-0.09 0 0 -0.1 0.09 0 0 0.1zm-0.09 0.16l0 -0.05 0.09 0 0 0.05 0 0 -0.09 0zm0.09 0.04l-0.09 0 0 -0.04 0.09 0 0 0.04zm0 0.17l-0.09 0 0 -0.08 0.09 0 0 0.08zm0 0.17l-0.09 0 0 -0.08 0.09 0 0 0.08zm0 0.17l-0.09 0 0 -0.08 0.09 0 0 0.08zm0 0.18l-0.09 0 0 -0.09 0.09 0 0 0.09zm0 0.17l-0.09 0 0 -0.09 0.09 0 0 0.09zm0 0.17l-0.09 0 0 -0.09 0.09 0 0 0.09zm0 0.17l-0.09 0 0 -0.09 0.09 0 0 0.09zm0 0.17l-0.09 0 0 -0.09 0.09 0 0 0.09zm0 0.17l-0.09 0 0 -0.09 0.09 0 0 0.09zm0 0.17l-0.09 0 0 -0.09 0.09 0 0 0.09zm0 0.17l-0.09 0 0 -0.09 0.09 0 0 0.09zm0 0.17l-0.09 0 0 -0.09 0.09 0 0 0.09zm0 0.17l-0.09 0 0 -0.09 0.09 0 0 0.09zm-0.09 0.12l0 -0.04 0.09 0 0 0.04 -0.09 0z"/>
  </g>
  <g>
   <path class="fil3" d="M19.45 4.02l0 -0.09 0.04 0 0 0.09 -0.04 0zm-0.15 0l0 -0.09 0.08 0 0 0.09 -0.08 0zm-0.12 -0.09l0.05 0 0 0.09 -0.05 0 0 0 0 -0.09zm-0.04 0.09l0 -0.09 0.04 0 0 0.09 -0.04 0zm-0.18 0l0 -0.09 0.09 0 0 0.09 -0.09 0zm-0.17 0l0 -0.09 0.08 0 0 0.09 -0.08 0zm-0.18 0l0 -0.09 0.09 0 0 0.09 -0.09 0zm-0.18 0l0 -0.09 0.09 0 0 0.09 -0.09 0zm-0.17 0l0 -0.09 0.09 0 0 0.09 -0.09 0zm-0.18 0l0 -0.09 0.09 0 0 0.09 -0.09 0zm-0.18 0l0 -0.09 0.09 0 0 0.09 -0.09 0zm-0.17 0l0 -0.09 0.09 0 0 0.09 -0.09 0zm-0.18 0l0 -0.09 0.09 0 0 0.09 -0.09 0zm-0.13 -0.09l0.04 0 0 0.09 -0.04 0 0 -0.09z"/>
  </g>
  <g>
   <path class="fil3" d="M17.99 5.93l-0.01 -0.53 0.48 0.26 -0.47 0.27zm0.47 -0.31c0.02,0 0.04,0.02 0.04,0.04 0,0.03 -0.02,0.05 -0.04,0.05l0 -0.09zm-4.46 0.03l4.46 -0.03 0 0.09 -4.46 0.03 0 -0.09zm0.48 0.3l-0.48 -0.25 0.47 -0.27 0.01 0.52zm-0.48 -0.21c-0.02,0 -0.04,-0.02 -0.04,-0.04 0,-0.03 0.02,-0.05 0.04,-0.05l0 0.09z"/>
  </g>
  <rect class="fil4" x="15.34" y="3.76" width="1.73" height="1.73"/>
  <g>
   <path class="fil3" d="M15 4.02l0 -0.09 0.04 0 0 0.09 -0.04 0zm-0.15 0l0 -0.09 0.07 0 0 0.09 -0.07 0zm-0.12 -0.09l0.04 0 0 0.09 -0.04 0 0 0 0 -0.09zm-0.04 0.09l0 -0.09 0.04 0 0 0.09 -0.04 0zm-0.18 0l0 -0.09 0.09 0 0 0.09 -0.09 0zm-0.18 0l0 -0.09 0.09 0 0 0.09 -0.09 0zm-0.17 0l0 -0.09 0.09 0 0 0.09 -0.09 0zm-0.18 0l0 -0.09 0.09 0 0 0.09 -0.09 0zm-0.17 0l0 -0.09 0.08 0 0 0.09 -0.08 0zm-0.18 0l0 -0.09 0.09 0 0 0.09 -0.09 0zm-0.18 0l0 -0.09 0.09 0 0 0.09 -0.09 0zm-0.17 0l0 -0.09 0.08 0 0 0.09 -0.08 0zm-0.18 0l0 -0.09 0.09 0 0 0.09 -0.09 0zm-0.13 -0.09l0.04 0 0 0.09 -0.04 0 0 -0.09z"/>
  </g>
  <g>
   <path class="fil3" d="M14.05 2.91l-0.09 0 0 -0.06 0.09 0 0 0.06zm0 0.2l-0.09 0 0 -0.1 0.09 0 0 0.1zm-0.09 0.16l0 -0.05 0.09 0 0 0.05 0 0 -0.09 0zm0.09 0.04l-0.09 0 0 -0.04 0.09 0 0 0.04zm0 0.17l-0.09 0 0 -0.08 0.09 0 0 0.08zm0 0.17l-0.09 0 0 -0.08 0.09 0 0 0.08zm0 0.17l-0.09 0 0 -0.08 0.09 0 0 0.08zm0 0.17l-0.09 0 0 -0.08 0.09 0 0 0.08zm0 0.17l-0.09 0 0 -0.08 0.09 0 0 0.08zm0 0.18l-0.09 0 0 -0.09 0.09 0 0 0.09zm0 0.17l-0.09 0 0 -0.09 0.09 0 0 0.09zm0 0.17l-0.09 0 0 -0.09 0.09 0 0 0.09zm0 0.17l-0.09 0 0 -0.09 0.09 0 0 0.09zm0 0.17l-0.09 0 0 -0.09 0.09 0 0 0.09zm0 0.17l-0.09 0 0 -0.09 0.09 0 0 0.09zm0 0.17l-0.09 0 0 -0.09 0.09 0 0 0.09zm0 0.17l-0.09 0 0 -0.09 0.09 0 0 0.09zm-0.09 0.12l0 -0.04 0.09 0 0 0.04 -0.09 0z"/>
  </g>
  <g>
   <path class="fil3" d="M13.35 3.68l0.38 -0.37 0.15 0.53 -0.53 -0.16zm0.55 0.12c0.02,0.02 0.02,0.05 0,0.06 -0.01,0.02 -0.04,0.02 -0.06,0l0.06 -0.06zm-1.29 -1.3l1.29 1.3 -0.06 0.06 -1.29 -1.29 0.06 -0.07zm-0.06 0.07c-0.02,-0.02 -0.02,-0.05 0,-0.07 0.01,-0.01 0.04,-0.01 0.06,0l-0.06 0.07z"/>
  </g>
  <rect class="fil4" x="10.85" y="2.53" width="1.73" height="1.73"/>
  <line class="fil5 str3" x1="6.74" y1="4.26" x2="9.21" y2= "1.38" />
  <rect class="fil5 str2" transform="matrix(-3.01739E-14 -1.1393 1 -2.64845E-14 5.01384 7.60708)" width="3.03" height="1.73"/>
  <circle class="fil1 str1" transform="matrix(-6.96894E-15 -0.263133 0.263133 -6.96894E-15 5.8783 6.74256)" r="0.82"/>
  <circle class="fil1 str1" transform="matrix(-6.96894E-15 -0.263133 0.263133 -6.96894E-15 5.8783 5.01363)" r="0.82"/>
  <line class="fil5 str3" x1="6.74" y1="7.61" x2="9.21" y2= "6.57" />
 </g>
</svg>
