<?xml version="1.0" encoding="UTF-8"?>
<!DOCTYPE svg PUBLIC "-//W3C//DTD SVG 1.1//EN" "http://www.w3.org/Graphics/SVG/1.1/DTD/svg11.dtd">
<!-- Creator: CorelDRAW 2020 (64-Bit) -->
<svg xmlns="http://www.w3.org/2000/svg" xml:space="preserve" width="366px" height="181px" version="1.1" style="shape-rendering:geometricPrecision; text-rendering:geometricPrecision; image-rendering:optimizeQuality; fill-rule:evenodd; clip-rule:evenodd"
viewBox="0 0 58.42 28.89"
 xmlns:xlink="http://www.w3.org/1999/xlink"
 xmlns:xodm="http://www.corel.com/coreldraw/odm/2003">
 <defs>
  <style type="text/css">
   <![CDATA[
    .str2 {stroke:#2B2A29;stroke-width:0.16;stroke-miterlimit:22.9256}
    .str0 {stroke:#2B2A29;stroke-width:0.16;stroke-miterlimit:22.9256}
    .str1 {stroke:#3F3F3C;stroke-width:0.16;stroke-miterlimit:22.9256}
    .str3 {stroke:#2B2A29;stroke-width:0.16;stroke-miterlimit:22.9256;stroke-dasharray:0.160000 0.480000}
    .fil4 {fill:none}
    .fil5 {fill:#FEFEFE}
    .fil3 {fill:#FEFEFE}
    .fil6 {fill:lime}
    .fil1 {fill:#3F3F3C}
    .fil0 {fill:#C19A6B}
    .fil2 {fill:#2B2A29;fill-rule:nonzero}
   ]]>
  </style>
 </defs>
 <g id="Capa_x0020_1">
  <metadata id="CorelCorpID_0Corel-Layer"/>
  <rect class="fil0 str0" x="0.08" y="0.08" width="58.26" height="28.73"/>
  <circle class="fil1 str1" cx="6.46" cy="23.38" r="0.4"/>
  <circle class="fil1 str1" cx="9.66" cy="23.38" r="0.4"/>
  <circle class="fil1 str1" cx="12.85" cy="23.38" r="0.4"/>
  <circle class="fil1 str1" cx="16.04" cy="23.38" r="0.4"/>
  <circle class="fil1 str1" cx="19.23" cy="23.38" r="0.4"/>
  <circle class="fil1 str1" cx="22.43" cy="23.38" r="0.4"/>
  <circle class="fil1 str1" cx="25.62" cy="23.38" r="0.4"/>
  <circle class="fil1 str1" cx="28.81" cy="23.38" r="0.4"/>
  <circle class="fil1 str1" cx="32" cy="23.38" r="0.4"/>
  <circle class="fil1 str1" cx="35.2" cy="23.38" r="0.4"/>
  <circle class="fil1 str1" cx="38.39" cy="23.38" r="0.4"/>
  <circle class="fil1 str1" cx="6.46" cy="5.03" r="0.4"/>
  <circle class="fil1 str1" cx="9.66" cy="5.03" r="0.4"/>
  <circle class="fil1 str1" cx="12.85" cy="5.03" r="0.4"/>
  <circle class="fil1 str1" cx="16.04" cy="5.03" r="0.4"/>
  <circle class="fil1 str1" cx="19.23" cy="5.03" r="0.4"/>
  <circle class="fil1 str1" cx="22.43" cy="5.03" r="0.4"/>
  <circle class="fil1 str1" cx="25.62" cy="5.03" r="0.4"/>
  <circle class="fil1 str1" cx="28.81" cy="5.03" r="0.4"/>
  <circle class="fil1 str1" cx="32" cy="5.03" r="0.4"/>
  <circle class="fil1 str1" cx="35.2" cy="5.03" r="0.4"/>
  <circle class="fil1 str1" cx="38.39" cy="5.03" r="0.4"/>
  <g>
   <path class="fil2" d="M6.9 0.95l-0.97 0.01 0.48 -0.89 0.49 0.88zm-0.57 -0.87c-0.01,-0.04 0.03,-0.08 0.07,-0.08 0.05,0 0.08,0.03 0.09,0.08l-0.16 0zm0.05 4.55l-0.05 -4.55 0.16 0 0.05 4.55 -0.16 0zm0.56 -0.88l-0.48 0.89 -0.49 -0.88 0.97 -0.01zm-0.4 0.88c0,0.04 -0.03,0.08 -0.07,0.08 -0.05,0 -0.08,-0.04 -0.09,-0.08l0.16 0z"/>
  </g>
  <g>
   <path class="fil2" d="M0.95 4.59l0.01 0.97 -0.89 -0.47 0.88 -0.5zm-0.87 0.58c-0.04,0 -0.08,-0.04 -0.08,-0.08 0,-0.05 0.04,-0.08 0.08,-0.08l0 0.16zm5.99 -0.06l-5.99 0.06 0 -0.16 5.98 -0.06 0.01 0.16zm-0.88 -0.56l0.89 0.48 -0.88 0.49 -0.01 -0.97zm0.87 0.4c0.05,0 0.09,0.03 0.09,0.08 0,0.04 -0.04,0.08 -0.08,0.08l-0.01 -0.16z"/>
  </g>
  <g>
   <path class="fil2" d="M52.42 4.54l0.01 0.97 -0.88 -0.48 0.87 -0.49zm-0.86 0.57c-0.05,0 -0.08,-0.04 -0.08,-0.08 0,-0.04 0.03,-0.08 0.08,-0.08l0 0.16zm6.78 -0.06l-6.78 0.06 0 -0.16 6.78 -0.06 0 0.16zm-0.88 -0.56l0.89 0.48 -0.88 0.49 -0.01 -0.97zm0.88 0.4c0.04,0 0.08,0.03 0.08,0.08 0,0.04 -0.04,0.08 -0.08,0.08l0 -0.16z"/>
  </g>
  <g>
   <path class="fil2" d="M6.96 24.65l-0.97 0.01 0.47 -0.89 0.5 0.88zm-0.58 -0.87c0,-0.04 0.04,-0.08 0.08,-0.08 0.05,0 0.08,0.04 0.08,0.08l-0.16 0zm0.06 5.03l-0.06 -5.03 0.16 0 0.06 5.03 -0.16 0zm0.56 -0.88l-0.48 0.89 -0.49 -0.88 0.97 -0.01zm-0.4 0.88c0,0.04 -0.03,0.08 -0.08,0.08 -0.04,0 -0.08,-0.03 -0.08,-0.08l0.16 0z"/>
  </g>
  <rect class="fil3" x="7.18" y="24.74" width="5.75" height="3.19"/>
  <g>
   <path class="fil2" d="M22.86 6.3l-0.98 0 0.49 -0.88 0.49 0.88zm-0.57 -0.87c0,-0.05 0.03,-0.08 0.08,-0.08 0.04,0 0.08,0.03 0.08,0.08l-0.16 0zm0.06 17.56l-0.06 -17.56 0.16 0 0.06 17.55 -0.16 0.01zm0.56 -0.88l-0.48 0.89 -0.49 -0.89 0.97 0zm-0.4 0.87c0,0.05 -0.04,0.08 -0.08,0.08 -0.05,0 -0.08,-0.03 -0.08,-0.07l0.16 -0.01z"/>
  </g>
  <rect class="fil4 str2" x="33.6" y="21.79" width="6.36" height="3.19"/>
  <g>
   <path class="fil2" d="M33.52 21.68l0.16 0 0 0.11 -0.16 0 0 -0.11zm0.16 -0.31l0 0.11 -0.16 0 0 -0.11 0 0 0.16 0zm-0.16 -0.08l0.16 0 0 0.08 -0.16 0 0 -0.08zm0 -0.34l0.16 0 0 0.17 -0.16 0 0 -0.17zm0 -0.34l0.16 0 0 0.17 -0.16 0 0 -0.17zm0 -0.34l0.16 0 0 0.17 -0.16 0 0 -0.17zm0 -0.34l0.16 0 0 0.17 -0.16 0 0 -0.17zm0 -0.34l0.16 0 0 0.17 -0.16 0 0 -0.17zm0 -0.34l0.16 0 0 0.17 -0.16 0 0 -0.17zm0.16 -0.25l0 0.08 -0.16 0 0 -0.08 0.16 0z"/>
  </g>
  <rect class="fil4 str2" x="33.6" y="9.42" width="19.15" height="9.58"/>
  <circle class="fil5" cx="35.67" cy="14.21" r="1.6"/>
  <circle class="fil5" cx="43.89" cy="14.21" r="1.6"/>
  <g>
   <path class="fil2" d="M35.59 16.17l0.16 0 0 0.09 -0.16 0 0 -0.09zm0 -0.39l0.16 0 0 0.19 -0.16 0 0 -0.19zm0.16 -0.29l0 0.1 -0.16 0 0 -0.1 0 0 0.16 0zm-0.16 -0.08l0.16 0 0 0.08 -0.16 0 0 -0.08zm0 -0.31l0.16 0 0 0.15 -0.16 0 0 -0.15zm0 -0.32l0.16 0 0 0.16 -0.16 0 0 -0.16zm0 -0.31l0.16 0 0 0.16 -0.16 0 0 -0.16zm0 -0.31l0.16 0 0 0.15 -0.16 0 0 -0.15zm0 -0.32l0.16 0 0 0.16 -0.16 0 0 -0.16zm0 -0.31l0.16 0 0 0.15 -0.16 0 0 -0.15zm0 -0.32l0.16 0 0 0.16 -0.16 0 0 -0.16zm0 -0.31l0.16 0 0 0.16 -0.16 0 0 -0.16zm0 -0.32l0.16 0 0 0.16 -0.16 0 0 -0.16zm0 -0.31l0.16 0 0 0.16 -0.16 0 0 -0.16zm0 -0.31l0.16 0 0 0.15 -0.16 0 0 -0.15zm0 -0.32l0.16 0 0 0.16 -0.16 0 0 -0.16zm0 -0.31l0.16 0 0 0.16 -0.16 0 0 -0.16zm0.16 -0.24l0 0.08 -0.16 0 0 -0.08 0.16 0z"/>
  </g>
  <g>
   <path class="fil2" d="M33.84 14.13l0 0.16 -0.08 0 0 -0.16 0.08 0zm0.27 0l0 0.16 -0.13 0 0 -0.16 0.13 0zm0.22 0.16l-0.08 0 0 -0.16 0.08 0 0 0 0 0.16zm0.08 -0.16l0 0.16 -0.08 0 0 -0.16 0.08 0zm0.33 0l0 0.16 -0.17 0 0 -0.16 0.17 0zm0.32 0l0 0.16 -0.16 0 0 -0.16 0.16 0zm0.33 0l0 0.16 -0.16 0 0 -0.16 0.16 0zm0.32 0l0 0.16 -0.16 0 0 -0.16 0.16 0zm0.33 0l0 0.16 -0.16 0 0 -0.16 0.16 0zm0.33 0l0 0.16 -0.17 0 0 -0.16 0.17 0zm0.32 0l0 0.16 -0.16 0 0 -0.16 0.16 0zm0.33 0l0 0.16 -0.17 0 0 -0.16 0.17 0zm0.32 0l0 0.16 -0.16 0 0 -0.16 0.16 0zm0.25 0.16l-0.08 0 0 -0.16 0.08 0 0 0.16z"/>
  </g>
  <g>
   <path class="fil2" d="M36.54 10.6l0.01 0.97 -0.89 -0.48 0.88 -0.49zm-0.87 0.57c-0.04,0 -0.08,-0.03 -0.08,-0.08 0,-0.04 0.04,-0.08 0.08,-0.08l0 0.16zm8.23 -0.06l-8.23 0.06 0 -0.16 8.22 -0.06 0.01 0.16zm-0.88 -0.56l0.88 0.48 -0.87 0.5 -0.01 -0.98zm0.87 0.4c0.05,0 0.08,0.04 0.08,0.08 0,0.05 -0.03,0.08 -0.07,0.08l-0.01 -0.16z"/>
  </g>
  <rect class="fil3" x="38.23" y="11.41" width="3.19" height="3.19"/>
  <rect class="fil3" x="7.26" y="0.72" width="5.75" height="3.19"/>
  <rect class="fil3" x="0.4" y="5.91" width="5.75" height="3.19"/>
  <rect class="fil3" x="52.07" y="1.04" width="5.75" height="3.19"/>
  <rect class="fil3" x="14.68" y="12.61" width="7.02" height="3.19"/>
  <line class="fil4 str3" x1="39.96" y1="21.79" x2="52.75" y2= "19" />
  <g>
   <path class="fil2" d="M42.06 14.13l0 0.16 -0.08 0 0 -0.16 0.08 0zm0.27 0l0 0.16 -0.13 0 0 -0.16 0.13 0zm0.22 0.16l-0.08 0 0 -0.16 0.08 0 0 0 0 0.16zm0.08 -0.16l0 0.16 -0.08 0 0 -0.16 0.08 0zm0.33 0l0 0.16 -0.16 0 0 -0.16 0.16 0zm0.32 0l0 0.16 -0.16 0 0 -0.16 0.16 0zm0.33 0l0 0.16 -0.16 0 0 -0.16 0.16 0zm0.33 0l0 0.16 -0.17 0 0 -0.16 0.17 0zm0.32 0l0 0.16 -0.16 0 0 -0.16 0.16 0zm0.33 0l0 0.16 -0.17 0 0 -0.16 0.17 0zm0.32 0l0 0.16 -0.16 0 0 -0.16 0.16 0zm0.33 0l0 0.16 -0.16 0 0 -0.16 0.16 0zm0.32 0l0 0.16 -0.16 0 0 -0.16 0.16 0zm0.25 0.16l-0.08 0 0 -0.16 0.08 0 0 0.16z"/>
  </g>
  <g>
   <path class="fil2" d="M43.81 16.18l0.16 0 0 0.1 -0.16 0 0 -0.1zm0 -0.38l0.16 0 0 0.19 -0.16 0 0 -0.19zm0.16 -0.29l0 0.1 -0.16 0 0 -0.1 0 0 0.16 0zm-0.16 -0.08l0.16 0 0 0.08 -0.16 0 0 -0.08zm0 -0.31l0.16 0 0 0.15 -0.16 0 0 -0.15zm0 -0.32l0.16 0 0 0.16 -0.16 0 0 -0.16zm0 -0.31l0.16 0 0 0.16 -0.16 0 0 -0.16zm0 -0.32l0.16 0 0 0.16 -0.16 0 0 -0.16zm0 -0.31l0.16 0 0 0.16 -0.16 0 0 -0.16zm0 -0.31l0.16 0 0 0.15 -0.16 0 0 -0.15zm0 -0.32l0.16 0 0 0.16 -0.16 0 0 -0.16zm0 -0.31l0.16 0 0 0.15 -0.16 0 0 -0.15zm0 -0.32l0.16 0 0 0.16 -0.16 0 0 -0.16zm0 -0.31l0.16 0 0 0.16 -0.16 0 0 -0.16zm0 -0.31l0.16 0 0 0.15 -0.16 0 0 -0.15zm0 -0.32l0.16 0 0 0.16 -0.16 0 0 -0.16zm0 -0.31l0.16 0 0 0.15 -0.16 0 0 -0.15zm0.16 -0.24l0 0.08 -0.16 0 0 -0.08 0.16 0z"/>
  </g>
  <g>
   <path class="fil2" d="M45.09 14.75l-0.68 0.69 -0.28 -0.97 0.96 0.28zm-1.01 -0.22c-0.03,-0.03 -0.03,-0.08 0,-0.11 0.03,-0.03 0.08,-0.03 0.11,0l-0.11 0.11zm2.39 2.4l-2.39 -2.4 0.11 -0.11 2.39 2.39 -0.11 0.12zm0.11 -0.12c0.04,0.04 0.04,0.09 0,0.12 -0.03,0.03 -0.08,0.03 -0.11,0l0.11 -0.12z"/>
  </g>
  <rect class="fil3" x="46.53" y="13.68" width="3.19" height="3.19"/>
  <circle class="fil1 str1" cx="41.58" cy="5.03" r="0.4"/>
  <circle class="fil1 str1" cx="44.77" cy="5.03" r="0.4"/>
  <circle class="fil1 str1" cx="47.96" cy="5.03" r="0.4"/>
  <circle class="fil1 str1" cx="51.16" cy="5.03" r="0.4"/>
  <circle class="fil1 str1" cx="41.58" cy="23.38" r="0.4"/>
  <circle class="fil1 str1" cx="44.77" cy="23.38" r="0.4"/>
  <circle class="fil1 str1" cx="47.96" cy="23.38" r="0.4"/>
  <circle class="fil1 str1" cx="51.16" cy="23.38" r="0.4"/>
  <rect class="fil6" x="0.16" y="0.16" width="1.6" height="1.6"/>
 </g>
</svg>
