<?xml version="1.0" encoding="UTF-8"?>
<!DOCTYPE svg PUBLIC "-//W3C//DTD SVG 1.1//EN" "http://www.w3.org/Graphics/SVG/1.1/DTD/svg11.dtd">
<!-- Creator: CorelDRAW 2020 (64-Bit) -->
<svg xmlns="http://www.w3.org/2000/svg" xml:space="preserve" width="366px" height="181px" version="1.1" style="shape-rendering:geometricPrecision; text-rendering:geometricPrecision; image-rendering:optimizeQuality; fill-rule:evenodd; clip-rule:evenodd"
viewBox="0 0 31.5 15.58"
 xmlns:xlink="http://www.w3.org/1999/xlink"
 xmlns:xodm="http://www.corel.com/coreldraw/odm/2003">
 <defs>
  <style type="text/css">
   <![CDATA[
    .str2 {stroke:#2B2A29;stroke-width:0.09;stroke-miterlimit:22.9256}
    .str0 {stroke:#2B2A29;stroke-width:0.09;stroke-miterlimit:22.9256}
    .str1 {stroke:#3F3F3C;stroke-width:0.09;stroke-miterlimit:22.9256}
    .str3 {stroke:#2B2A29;stroke-width:0.09;stroke-miterlimit:22.9256;stroke-dasharray:0.090000 0.090000}
    .fil5 {fill:none}
    .fil6 {fill:#FEFEFE}
    .fil4 {fill:#FEFEFE}
    .fil2 {fill:lime}
    .fil1 {fill:#3F3F3C}
    .fil0 {fill:#C19A6B}
    .fil3 {fill:#2B2A29;fill-rule:nonzero}
   ]]>
  </style>
 </defs>
 <g id="Capa_x0020_1">
  <metadata id="CorelCorpID_0Corel-Layer"/>
  <rect class="fil0 str0" x="0.04" y="0.04" width="31.42" height="15.49"/>
  <circle class="fil1 str1" transform="matrix(-6.96894E-15 0.263133 0.263133 6.96894E-15 26.5117 3.70145)" r="0.82"/>
  <circle class="fil1 str1" transform="matrix(-6.96894E-15 0.263133 0.263133 6.96894E-15 26.5117 5.42306)" r="0.82"/>
  <circle class="fil1 str1" transform="matrix(-6.96894E-15 0.263133 0.263133 6.96894E-15 26.5117 7.14457)" r="0.82"/>
  <circle class="fil1 str1" transform="matrix(-6.96894E-15 0.263133 0.263133 6.96894E-15 26.5117 8.86608)" r="0.82"/>
  <circle class="fil1 str1" transform="matrix(-6.96894E-15 0.263133 0.263133 6.96894E-15 26.5117 10.5877)" r="0.82"/>
  <circle class="fil1 str1" transform="matrix(-6.96894E-15 0.263133 0.263133 6.96894E-15 5.85341 3.70145)" r="0.82"/>
  <circle class="fil1 str1" transform="matrix(-6.96894E-15 0.263133 0.263133 6.96894E-15 5.85341 5.42306)" r="0.82"/>
  <circle class="fil1 str1" transform="matrix(-6.96894E-15 0.263133 0.263133 6.96894E-15 5.85341 7.14457)" r="0.82"/>
  <rect class="fil2" transform="matrix(-3.08792E-14 1.16593 1.14311 3.02747E-14 30.5574 0.0861618)" width="0.74" height="0.75"/>
  <g>
   <path class="fil3" d="M25.83 7.39l0 -0.52 0.47 0.26 -0.47 0.26zm0.47 -0.3c0.02,0 0.04,0.01 0.04,0.04 0,0.02 -0.02,0.04 -0.04,0.04l0 -0.08zm-20.23 0.03l20.23 -0.03 0 0.08 -20.23 0.03 0 -0.08zm0.47 0.3l-0.48 -0.26 0.48 -0.26 0 0.52zm-0.47 -0.22c-0.03,0 -0.04,-0.02 -0.04,-0.04 0,-0.02 0.01,-0.04 0.04,-0.04l0 0.08z"/>
  </g>
  <rect class="fil4" x="13.86" y="5.12" width="3.79" height="1.72"/>
  <rect class="fil4" x="1.29" y="1.55" width="3.1" height="1.72"/>
  <g>
   <path class="fil3" d="M5.17 3.95l0 -0.52 0.47 0.26 -0.47 0.26zm0.47 -0.31c0.02,0 0.04,0.02 0.04,0.05 0,0.02 -0.02,0.04 -0.04,0.04l0 -0.09zm-5.6 0.03l5.6 -0.03 0 0.09 -5.6 0.03 0 -0.09zm0.48 0.31l-0.48 -0.26 0.47 -0.27 0.01 0.53zm-0.48 -0.22c-0.02,0 -0.04,-0.02 -0.04,-0.04 0,-0.03 0.02,-0.05 0.04,-0.05l0 0.09z"/>
  </g>
  <g>
   <path class="fil3" d="M26.76 0.51l-0.52 0.01 0.26 -0.48 0.26 0.47zm-0.31 -0.47c0,-0.02 0.02,-0.04 0.05,-0.04 0.02,0 0.04,0.02 0.04,0.04l-0.09 0zm0.03 3.45l-0.03 -3.45 0.09 0 0.03 3.45 -0.09 0zm0.31 -0.48l-0.26 0.48 -0.27 -0.47 0.53 -0.01zm-0.22 0.48c0,0.02 -0.02,0.04 -0.04,0.04 -0.03,0 -0.05,-0.02 -0.05,-0.04l0.09 0z"/>
  </g>
  <rect class="fil4" x="22.9" y="0.9" width="3.1" height="1.72"/>
  <rect class="fil4" x="27.54" y="4" width="3.1" height="1.72"/>
  <g>
   <path class="fil3" d="M30.99 3.95l0 -0.52 0.48 0.26 -0.48 0.26zm0.47 -0.31c0.02,0 0.04,0.02 0.04,0.05 0,0.02 -0.01,0.04 -0.04,0.04l0 -0.09zm-4.73 0.03l4.73 -0.03 0 0.09 -4.73 0.03 0 -0.09zm0.47 0.31l-0.48 -0.26 0.48 -0.27 0 0.53zm-0.47 -0.22c-0.03,0 -0.05,-0.02 -0.05,-0.04 0,-0.03 0.02,-0.05 0.05,-0.05l0 0.09z"/>
  </g>
  <rect class="fil4" x="22.81" y="12.35" width="3.1" height="1.72"/>
  <g>
   <path class="fil3" d="M26.76 11.27l-0.52 0.01 0.26 -0.48 0.26 0.47zm-0.31 -0.47c0,-0.02 0.02,-0.04 0.05,-0.04 0.02,0 0.04,0.02 0.04,0.04l-0.09 0zm0.03 4.74l-0.03 -4.74 0.09 0 0.03 4.74 -0.09 0zm0.31 -0.48l-0.26 0.48 -0.27 -0.47 0.53 -0.01zm-0.22 0.48c0,0.02 -0.02,0.04 -0.04,0.04 -0.03,0 -0.05,-0.02 -0.05,-0.04l0.09 0z"/>
  </g>
  <rect class="fil5 str2" x="9.17" y="9.04" width="10.33" height="5.17"/>
  <circle class="fil6" cx="18.38" cy="11.62" r="0.86"/>
  <circle class="fil6" cx="13.94" cy="11.62" r="0.86"/>
  <g>
   <path class="fil3" d="M18.33 12.68l0.09 0 0 0.05 -0.09 0 0 -0.05zm0 -0.21l0.09 0 0 0.1 -0.09 0 0 -0.1zm0.09 -0.16l0 0.05 -0.09 0 0 -0.05 0 0 0.09 0zm-0.09 -0.04l0.09 0 0 0.04 -0.09 0 0 -0.04zm0 -0.17l0.09 0 0 0.08 -0.09 0 0 -0.08zm0 -0.17l0.09 0 0 0.09 -0.09 0 0 -0.09zm0 -0.17l0.09 0 0 0.09 -0.09 0 0 -0.09zm0 -0.17l0.09 0 0 0.09 -0.09 0 0 -0.09zm0 -0.17l0.09 0 0 0.09 -0.09 0 0 -0.09zm0 -0.17l0.09 0 0 0.09 -0.09 0 0 -0.09zm0 -0.17l0.09 0 0 0.09 -0.09 0 0 -0.09zm0 -0.17l0.09 0 0 0.09 -0.09 0 0 -0.09zm0 -0.16l0.09 0 0 0.08 -0.09 0 0 -0.08zm0 -0.17l0.09 0 0 0.08 -0.09 0 0 -0.08zm0 -0.17l0.09 0 0 0.08 -0.09 0 0 -0.08zm0 -0.17l0.09 0 0 0.08 -0.09 0 0 -0.08zm0 -0.17l0.09 0 0 0.08 -0.09 0 0 -0.08zm0.09 -0.13l0 0.04 -0.09 0 0 -0.04 0.09 0z"/>
  </g>
  <g>
   <path class="fil3" d="M19.37 11.66l0 -0.08 0.04 0 0 0.08 -0.04 0zm-0.15 0l0 -0.08 0.07 0 0 0.08 -0.07 0zm-0.12 -0.08l0.05 0 0 0.08 -0.05 0 0 0 0 -0.08zm-0.04 0.08l0 -0.08 0.04 0 0 0.08 -0.04 0zm-0.18 0l0 -0.08 0.09 0 0 0.08 -0.09 0zm-0.17 0l0 -0.08 0.08 0 0 0.08 -0.08 0zm-0.18 0l0 -0.08 0.09 0 0 0.08 -0.09 0zm-0.17 0l0 -0.08 0.08 0 0 0.08 -0.08 0zm-0.18 0l0 -0.08 0.09 0 0 0.08 -0.09 0zm-0.18 0l0 -0.08 0.09 0 0 0.08 -0.09 0zm-0.17 0l0 -0.08 0.09 0 0 0.08 -0.09 0zm-0.18 0l0 -0.08 0.09 0 0 0.08 -0.09 0zm-0.17 0l0 -0.08 0.09 0 0 0.08 -0.09 0zm-0.14 -0.08l0.05 0 0 0.08 -0.05 0 0 -0.08z"/>
  </g>
  <g>
   <path class="fil3" d="M17.91 10.2l0 -0.52 0.47 0.26 -0.47 0.26zm0.47 -0.3c0.02,0 0.04,0.02 0.04,0.04 0,0.02 -0.02,0.04 -0.04,0.04l0 -0.08zm-4.44 -0.03l4.44 0.03 0 0.08 -4.44 -0.03 0 -0.08zm0.47 0.3l-0.47 -0.26 0.48 -0.26 -0.01 0.52zm-0.47 -0.22c-0.02,0 -0.04,-0.02 -0.04,-0.04 0,-0.03 0.02,-0.04 0.04,-0.04l0 0.08z"/>
  </g>
  <rect class="fil4" x="15.28" y="10.11" width="1.72" height="1.72"/>
  <g>
   <path class="fil3" d="M14.93 11.66l0 -0.08 0.05 0 0 0.08 -0.05 0zm-0.14 0l0 -0.08 0.07 0 0 0.08 -0.07 0zm-0.12 -0.08l0.04 0 0 0.08 -0.04 0 0 0 0 -0.08zm-0.04 0.08l0 -0.08 0.04 0 0 0.08 -0.04 0zm-0.18 0l0 -0.08 0.09 0 0 0.08 -0.09 0zm-0.18 0l0 -0.08 0.09 0 0 0.08 -0.09 0zm-0.17 0l0 -0.08 0.09 0 0 0.08 -0.09 0zm-0.18 0l0 -0.08 0.09 0 0 0.08 -0.09 0zm-0.17 0l0 -0.08 0.08 0 0 0.08 -0.08 0zm-0.18 0l0 -0.08 0.09 0 0 0.08 -0.09 0zm-0.17 0l0 -0.08 0.08 0 0 0.08 -0.08 0zm-0.18 0l0 -0.08 0.09 0 0 0.08 -0.09 0zm-0.18 0l0 -0.08 0.09 0 0 0.08 -0.09 0zm-0.13 -0.08l0.05 0 0 0.08 -0.05 0 0 -0.08z"/>
  </g>
  <g>
   <path class="fil3" d="M13.9 12.69l0.09 0 0 0.05 -0.09 0 0 -0.05zm0 -0.21l0.09 0 0 0.1 -0.09 0 0 -0.1zm0.09 -0.16l0 0.05 -0.09 0 0 -0.05 0 0 0.09 0zm-0.09 -0.04l0.09 0 0 0.04 -0.09 0 0 -0.04zm0 -0.17l0.09 0 0 0.08 -0.09 0 0 -0.08zm0 -0.17l0.09 0 0 0.09 -0.09 0 0 -0.09zm0 -0.17l0.09 0 0 0.09 -0.09 0 0 -0.09zm0 -0.17l0.09 0 0 0.09 -0.09 0 0 -0.09zm0 -0.17l0.09 0 0 0.09 -0.09 0 0 -0.09zm0 -0.17l0.09 0 0 0.09 -0.09 0 0 -0.09zm0 -0.17l0.09 0 0 0.09 -0.09 0 0 -0.09zm0 -0.17l0.09 0 0 0.09 -0.09 0 0 -0.09zm0 -0.16l0.09 0 0 0.08 -0.09 0 0 -0.08zm0 -0.17l0.09 0 0 0.08 -0.09 0 0 -0.08zm0 -0.17l0.09 0 0 0.08 -0.09 0 0 -0.08zm0 -0.17l0.09 0 0 0.08 -0.09 0 0 -0.08zm0 -0.17l0.09 0 0 0.08 -0.09 0 0 -0.08zm0.09 -0.13l0 0.04 -0.09 0 0 -0.04 0.09 0z"/>
  </g>
  <g>
   <path class="fil3" d="M13.67 12.28l-0.37 -0.37 0.52 -0.15 -0.15 0.52zm0.12 -0.55c0.01,-0.01 0.04,-0.01 0.06,0 0.01,0.02 0.01,0.05 0,0.07l-0.06 -0.07zm-1.3 1.3l1.3 -1.3 0.06 0.07 -1.3 1.29 -0.06 -0.06zm0.06 0.06c-0.01,0.01 -0.04,0.01 -0.06,0 -0.01,-0.02 -0.01,-0.05 0,-0.06l0.06 0.06z"/>
  </g>
  <rect class="fil4" x="10.8" y="11.33" width="1.72" height="1.72"/>
  <line class="fil5 str3" x1="6.71" y1="11.34" x2="9.17" y2= "14.2" />
  <rect class="fil5 str2" transform="matrix(-3.01739E-14 1.1393 1 2.64845E-14 4.99261 8.00521)" width="3.01" height="1.72"/>
  <circle class="fil1 str1" transform="matrix(-6.96894E-15 0.263133 0.263133 6.96894E-15 5.85341 8.86608)" r="0.82"/>
  <circle class="fil1 str1" transform="matrix(-6.96894E-15 0.263133 0.263133 6.96894E-15 5.85341 10.5877)" r="0.82"/>
  <line class="fil5 str3" x1="6.71" y1="8.01" x2="9.17" y2= "9.04" />
 </g>
</svg>
