<?xml version="1.0" encoding="UTF-8"?>
<!DOCTYPE svg PUBLIC "-//W3C//DTD SVG 1.1//EN" "http://www.w3.org/Graphics/SVG/1.1/DTD/svg11.dtd">
<!-- Creator: CorelDRAW 2020 (64-Bit) -->
<svg xmlns="http://www.w3.org/2000/svg" xml:space="preserve" width="366px" height="181px" version="1.1" style="shape-rendering:geometricPrecision; text-rendering:geometricPrecision; image-rendering:optimizeQuality; fill-rule:evenodd; clip-rule:evenodd"
viewBox="0 0 129.3 63.94"
 xmlns:xlink="http://www.w3.org/1999/xlink"
 xmlns:xodm="http://www.corel.com/coreldraw/odm/2003">
 <defs>
  <style type="text/css">
   <![CDATA[
    .str2 {stroke:#2B2A29;stroke-width:0.35;stroke-miterlimit:22.9256}
    .str0 {stroke:#2B2A29;stroke-width:0.35;stroke-miterlimit:22.9256}
    .str1 {stroke:#3F3F3C;stroke-width:0.35;stroke-miterlimit:22.9256}
    .str3 {stroke:#2B2A29;stroke-width:0.35;stroke-miterlimit:22.9256;stroke-dasharray:0.350000 1.060000}
    .fil4 {fill:none}
    .fil5 {fill:#FEFEFE}
    .fil3 {fill:#FEFEFE}
    .fil6 {fill:lime}
    .fil1 {fill:#3F3F3C}
    .fil0 {fill:#C19A6B}
    .fil2 {fill:#2B2A29;fill-rule:nonzero}
   ]]>
  </style>
 </defs>
 <g id="Capa_x0020_1">
  <metadata id="CorelCorpID_0Corel-Layer"/>
  <rect class="fil0 str0" x="0.18" y="0.18" width="128.95" height="63.59"/>
  <circle class="fil1 str1" cx="14.31" cy="12.19" r="0.88"/>
  <circle class="fil1 str1" cx="21.37" cy="12.19" r="0.88"/>
  <circle class="fil1 str1" cx="28.44" cy="12.19" r="0.88"/>
  <circle class="fil1 str1" cx="35.51" cy="12.19" r="0.88"/>
  <circle class="fil1 str1" cx="42.57" cy="12.19" r="0.88"/>
  <circle class="fil1 str1" cx="49.64" cy="12.19" r="0.88"/>
  <circle class="fil1 str1" cx="56.7" cy="12.19" r="0.88"/>
  <circle class="fil1 str1" cx="63.77" cy="12.19" r="0.88"/>
  <circle class="fil1 str1" cx="70.83" cy="12.19" r="0.88"/>
  <circle class="fil1 str1" cx="77.9" cy="12.19" r="0.88"/>
  <circle class="fil1 str1" cx="84.96" cy="12.19" r="0.88"/>
  <circle class="fil1 str1" cx="14.31" cy="52.82" r="0.88"/>
  <circle class="fil1 str1" cx="21.37" cy="52.82" r="0.88"/>
  <circle class="fil1 str1" cx="28.44" cy="52.82" r="0.88"/>
  <circle class="fil1 str1" cx="35.51" cy="52.82" r="0.88"/>
  <circle class="fil1 str1" cx="42.57" cy="52.82" r="0.88"/>
  <circle class="fil1 str1" cx="49.64" cy="52.82" r="0.88"/>
  <circle class="fil1 str1" cx="56.7" cy="52.82" r="0.88"/>
  <circle class="fil1 str1" cx="63.77" cy="52.82" r="0.88"/>
  <circle class="fil1 str1" cx="70.83" cy="52.82" r="0.88"/>
  <circle class="fil1 str1" cx="77.9" cy="52.82" r="0.88"/>
  <circle class="fil1 str1" cx="84.96" cy="52.82" r="0.88"/>
  <g>
   <path class="fil2" d="M13.13 61.82l2.15 0.03 -1.1 1.94 -1.05 -1.97zm1.22 1.95c0,0.1 -0.08,0.18 -0.18,0.17 -0.09,0 -0.17,-0.08 -0.17,-0.17l0.35 0zm0.13 -10.07l-0.13 10.07 -0.35 0 0.13 -10.07 0.35 0zm-1.27 1.92l1.1 -1.94 1.05 1.96 -2.15 -0.02zm0.92 -1.92c0,-0.1 0.08,-0.18 0.18,-0.18 0.1,0 0.18,0.08 0.17,0.18l-0.35 0z"/>
  </g>
  <g>
   <path class="fil2" d="M2.12 51.63l-0.02 2.15 -1.95 -1.1 1.97 -1.05zm-1.95 1.23c-0.09,0 -0.17,-0.08 -0.17,-0.18 0,-0.1 0.08,-0.17 0.18,-0.17l-0.01 0.35zm13.25 0.13l-13.25 -0.13 0.01 -0.35 13.25 0.13 -0.01 0.35zm-1.92 -1.27l1.95 1.1 -1.97 1.05 0.02 -2.15zm1.93 0.92c0.09,0 0.17,0.08 0.17,0.18 0,0.09 -0.08,0.17 -0.18,0.17l0.01 -0.35z"/>
  </g>
  <g>
   <path class="fil2" d="M116.05 51.76l-0.02 2.15 -1.94 -1.09 1.96 -1.06zm-1.94 1.23c-0.1,0 -0.18,-0.08 -0.18,-0.18 0,-0.09 0.08,-0.17 0.18,-0.17l0 0.35zm15.01 0.13l-15.01 -0.13 0 -0.35 15.02 0.13 -0.01 0.35zm-1.92 -1.26l1.95 1.09 -1.97 1.05 0.02 -2.14zm1.93 0.91c0.09,0 0.17,0.08 0.17,0.18 0,0.1 -0.08,0.17 -0.18,0.17l0.01 -0.35z"/>
  </g>
  <g>
   <path class="fil2" d="M13.26 9.36l2.15 0.03 -1.1 1.94 -1.05 -1.97zm1.22 1.95c0,0.09 -0.08,0.17 -0.17,0.17 -0.1,0 -0.18,-0.08 -0.18,-0.18l0.35 0.01zm0.14 -11.13l-0.14 11.13 -0.35 -0.01 0.13 -11.13 0.36 0.01zm-1.28 1.92l1.1 -1.95 1.05 1.97 -2.15 -0.02zm0.92 -1.93c0,-0.09 0.08,-0.17 0.18,-0.17 0.1,0 0.18,0.08 0.18,0.18l-0.36 -0.01z"/>
  </g>
  <rect class="fil3" x="15.9" y="2.12" width="12.72" height="7.07"/>
  <g>
   <path class="fil2" d="M48.44 50l2.15 0 -1.08 1.95 -1.07 -1.95zm1.24 1.93c0,0.1 -0.08,0.18 -0.18,0.18 -0.09,0 -0.17,-0.08 -0.17,-0.18l0.35 0zm0.13 -38.86l-0.13 38.86 -0.35 0 0.13 -38.86 0.35 0zm-1.25 1.93l1.08 -1.95 1.06 1.96 -2.14 -0.01zm0.9 -1.93c0,-0.1 0.08,-0.18 0.18,-0.18 0.09,0 0.17,0.08 0.17,0.18l-0.35 0z"/>
  </g>
  <rect class="fil4 str2" x="74.37" y="8.66" width="14.09" height="7.07"/>
  <g>
   <path class="fil2" d="M74.54 15.95l-0.35 0 0 -0.23 0.35 0 0 0.23zm-0.35 0.69l0 -0.23 0.35 0 0 0.23 0 0 -0.35 0zm0.35 0.19l-0.35 0 0 -0.19 0.35 0 0 0.19zm0 0.75l-0.35 0 0 -0.37 0.35 0 0 0.37zm0 0.75l-0.35 0 0 -0.37 0.35 0 0 0.37zm0 0.75l-0.35 0 0 -0.37 0.35 0 0 0.37zm0 0.75l-0.35 0 0 -0.37 0.35 0 0 0.37zm0 0.76l-0.35 0 0 -0.38 0.35 0 0 0.38zm0 0.75l-0.35 0 0 -0.38 0.35 0 0 0.38zm-0.35 0.56l0 -0.19 0.35 0 0 0.19 -0.35 0z"/>
  </g>
  <rect class="fil4 str2" x="74.37" y="21.9" width="42.39" height="21.2"/>
  <circle class="fil5" cx="78.96" cy="32.5" r="3.53"/>
  <circle class="fil5" cx="97.15" cy="32.5" r="3.53"/>
  <g>
   <path class="fil2" d="M79.14 28.16l-0.36 0 0 -0.21 0.36 0 0 0.21zm0 0.86l-0.36 0 0 -0.43 0.36 0 0 0.43zm-0.36 0.64l0 -0.22 0.36 0 0 0.22 0 0 -0.36 0zm0.36 0.17l-0.36 0 0 -0.17 0.36 0 0 0.17zm0 0.7l-0.36 0 0 -0.35 0.36 0 0 0.35zm0 0.69l-0.36 0 0 -0.34 0.36 0 0 0.34zm0 0.7l-0.36 0 0 -0.35 0.36 0 0 0.35zm0 0.69l-0.36 0 0 -0.34 0.36 0 0 0.34zm0 0.7l-0.36 0 0 -0.35 0.36 0 0 0.35zm0 0.69l-0.36 0 0 -0.34 0.36 0 0 0.34zm0 0.7l-0.36 0 0 -0.35 0.36 0 0 0.35zm0 0.7l-0.36 0 0 -0.35 0.36 0 0 0.35zm0 0.69l-0.36 0 0 -0.35 0.36 0 0 0.35zm0 0.7l-0.36 0 0 -0.35 0.36 0 0 0.35zm0 0.69l-0.36 0 0 -0.35 0.36 0 0 0.35zm0 0.7l-0.36 0 0 -0.35 0.36 0 0 0.35zm0 0.69l-0.36 0 0 -0.35 0.36 0 0 0.35zm-0.36 0.52l0 -0.17 0.36 0 0 0.17 -0.36 0z"/>
  </g>
  <g>
   <path class="fil2" d="M74.9 32.32l0 0.36 -0.18 0 0 -0.36 0.18 0zm0.6 0l0 0.36 -0.3 0 0 -0.36 0.3 0zm0.48 0.36l-0.17 0 0 -0.36 0.17 0 0 0 0 0.36zm0.18 -0.36l0 0.36 -0.18 0 0 -0.36 0.18 0zm0.73 0l0 0.36 -0.37 0 0 -0.36 0.37 0zm0.72 0l0 0.36 -0.36 0 0 -0.36 0.36 0zm0.72 0l0 0.36 -0.36 0 0 -0.36 0.36 0zm0.72 0l0 0.36 -0.36 0 0 -0.36 0.36 0zm0.72 0l0 0.36 -0.36 0 0 -0.36 0.36 0zm0.72 0l0 0.36 -0.36 0 0 -0.36 0.36 0zm0.72 0l0 0.36 -0.36 0 0 -0.36 0.36 0zm0.72 0l0 0.36 -0.36 0 0 -0.36 0.36 0zm0.72 0l0 0.36 -0.36 0 0 -0.36 0.36 0zm0.55 0.36l-0.19 0 0 -0.36 0.19 0 0 0.36z"/>
  </g>
  <g>
   <path class="fil2" d="M80.9 38.33l-0.02 2.15 -1.94 -1.09 1.96 -1.06zm-1.94 1.24c-0.1,0 -0.18,-0.08 -0.18,-0.18 0,-0.1 0.08,-0.18 0.18,-0.18l0 0.36zm18.19 0.13l-18.19 -0.13 0 -0.36 18.19 0.14 0 0.35zm-1.92 -1.27l1.95 1.09 -1.97 1.06 0.02 -2.15zm1.92 0.92c0.1,0 0.18,0.08 0.18,0.17 0,0.1 -0.08,0.18 -0.18,0.18l0 -0.35z"/>
  </g>
  <rect class="fil3" x="84.61" y="31.62" width="7.07" height="7.07"/>
  <rect class="fil3" x="16.07" y="55.29" width="12.72" height="7.07"/>
  <rect class="fil3" x="0.88" y="43.81" width="12.72" height="7.07"/>
  <rect class="fil3" x="115.26" y="54.58" width="12.72" height="7.07"/>
  <rect class="fil3" x="32.5" y="28.97" width="15.54" height="7.07"/>
  <line class="fil4 str3" x1="88.45" y1="15.72" x2="116.76" y2= "21.9" />
  <g>
   <path class="fil2" d="M93.09 32.32l0 0.36 -0.18 0 0 -0.36 0.18 0zm0.61 0l0 0.36 -0.31 0 0 -0.36 0.31 0zm0.48 0.36l-0.18 0 0 -0.36 0.18 0 0 0 0 0.36zm0.18 -0.36l0 0.36 -0.18 0 0 -0.36 0.18 0zm0.72 0l0 0.36 -0.36 0 0 -0.36 0.36 0zm0.72 0l0 0.36 -0.36 0 0 -0.36 0.36 0zm0.72 0l0 0.36 -0.36 0 0 -0.36 0.36 0zm0.72 0l0 0.36 -0.36 0 0 -0.36 0.36 0zm0.72 0l0 0.36 -0.36 0 0 -0.36 0.36 0zm0.72 0l0 0.36 -0.36 0 0 -0.36 0.36 0zm0.73 0l0 0.36 -0.36 0 0 -0.36 0.36 0zm0.72 0l0 0.36 -0.36 0 0 -0.36 0.36 0zm0.72 0l0 0.36 -0.36 0 0 -0.36 0.36 0zm0.54 0.36l-0.18 0 0 -0.36 0.18 0 0 0.36z"/>
  </g>
  <g>
   <path class="fil2" d="M97.33 28.12l-0.35 0 0 -0.21 0.35 0 0 0.21zm0 0.86l-0.35 0 0 -0.43 0.35 0 0 0.43zm-0.35 0.64l0 -0.22 0.35 0 0 0.22 0 0 -0.35 0zm0.35 0.17l-0.35 0 0 -0.17 0.35 0 0 0.17zm0 0.7l-0.35 0 0 -0.35 0.35 0 0 0.35zm0 0.69l-0.35 0 0 -0.34 0.35 0 0 0.34zm0 0.7l-0.35 0 0 -0.35 0.35 0 0 0.35zm0 0.69l-0.35 0 0 -0.34 0.35 0 0 0.34zm0 0.7l-0.35 0 0 -0.35 0.35 0 0 0.35zm0 0.69l-0.35 0 0 -0.34 0.35 0 0 0.34zm0 0.7l-0.35 0 0 -0.35 0.35 0 0 0.35zm0 0.69l-0.35 0 0 -0.34 0.35 0 0 0.34zm0 0.7l-0.35 0 0 -0.35 0.35 0 0 0.35zm0 0.69l-0.35 0 0 -0.34 0.35 0 0 0.34zm0 0.7l-0.35 0 0 -0.35 0.35 0 0 0.35zm0 0.69l-0.35 0 0 -0.34 0.35 0 0 0.34zm0 0.7l-0.35 0 0 -0.35 0.35 0 0 0.35zm-0.35 0.52l0 -0.17 0.35 0 0 0.17 -0.35 0z"/>
  </g>
  <g>
   <path class="fil2" d="M98.29 29.78l1.52 1.52 -2.14 0.62 0.62 -2.14zm-0.48 2.25c-0.07,0.07 -0.18,0.07 -0.25,0 -0.07,-0.07 -0.07,-0.18 0,-0.25l0.25 0.25zm5.3 -5.3l-5.3 5.3 -0.25 -0.25 5.3 -5.3 0.25 0.25zm-0.25 -0.25c0.07,-0.07 0.18,-0.07 0.25,0 0.06,0.07 0.06,0.18 0,0.25l-0.25 -0.25z"/>
  </g>
  <rect class="fil3" x="102.98" y="26.61" width="7.07" height="7.07"/>
  <circle class="fil1 str1" cx="92.03" cy="52.82" r="0.88"/>
  <circle class="fil1 str1" cx="99.1" cy="52.82" r="0.88"/>
  <circle class="fil1 str1" cx="106.16" cy="52.82" r="0.88"/>
  <circle class="fil1 str1" cx="113.23" cy="52.82" r="0.88"/>
  <circle class="fil1 str1" cx="92.03" cy="12.19" r="0.88"/>
  <circle class="fil1 str1" cx="99.1" cy="12.19" r="0.88"/>
  <circle class="fil1 str1" cx="106.16" cy="12.19" r="0.88"/>
  <circle class="fil1 str1" cx="113.23" cy="12.19" r="0.88"/>
  <rect class="fil6" x="0.35" y="60.06" width="3.53" height="3.53"/>
 </g>
</svg>
