<?xml version="1.0" encoding="UTF-8"?>
<!DOCTYPE svg PUBLIC "-//W3C//DTD SVG 1.1//EN" "http://www.w3.org/Graphics/SVG/1.1/DTD/svg11.dtd">
<!-- Creator: CorelDRAW 2020 (64-Bit) -->
<svg xmlns="http://www.w3.org/2000/svg" xml:space="preserve" width="366px" height="181px" version="1.1" style="shape-rendering:geometricPrecision; text-rendering:geometricPrecision; image-rendering:optimizeQuality; fill-rule:evenodd; clip-rule:evenodd"
viewBox="0 0 38.36 18.97"
 xmlns:xlink="http://www.w3.org/1999/xlink"
 xmlns:xodm="http://www.corel.com/coreldraw/odm/2003">
 <defs>
  <style type="text/css">
   <![CDATA[
    .str2 {stroke:#2B2A29;stroke-width:0.1;stroke-miterlimit:22.9256}
    .str0 {stroke:#2B2A29;stroke-width:0.1;stroke-miterlimit:22.9256}
    .str1 {stroke:#3F3F3C;stroke-width:0.1;stroke-miterlimit:22.9256}
    .str3 {stroke:#2B2A29;stroke-width:0.1;stroke-miterlimit:22.9256;stroke-dasharray:0.100000 0.100000}
    .fil5 {fill:none}
    .fil6 {fill:#FEFEFE}
    .fil4 {fill:#FEFEFE}
    .fil2 {fill:lime}
    .fil1 {fill:#3F3F3C}
    .fil0 {fill:#C19A6B}
    .fil3 {fill:#2B2A29;fill-rule:nonzero}
   ]]>
  </style>
 </defs>
 <g id="Capa_x0020_1">
  <metadata id="CorelCorpID_0Corel-Layer"/>
  <rect class="fil0 str0" x="0.05" y="0.05" width="38.26" height="18.87"/>
  <circle class="fil1 str1" transform="matrix(6.96894E-15 -0.263133 -0.263133 -6.96894E-15 6.0792 14.4639)" r="1"/>
  <circle class="fil1 str1" transform="matrix(6.96894E-15 -0.263133 -0.263133 -6.96894E-15 6.0792 12.3676)" r="1"/>
  <circle class="fil1 str1" transform="matrix(6.96894E-15 -0.263133 -0.263133 -6.96894E-15 6.0792 10.2714)" r="1"/>
  <circle class="fil1 str1" transform="matrix(6.96894E-15 -0.263133 -0.263133 -6.96894E-15 6.0792 8.17526)" r="1"/>
  <circle class="fil1 str1" transform="matrix(6.96894E-15 -0.263133 -0.263133 -6.96894E-15 6.0792 6.07896)" r="1"/>
  <circle class="fil1 str1" transform="matrix(6.96894E-15 -0.263133 -0.263133 -6.96894E-15 31.2336 14.4639)" r="1"/>
  <circle class="fil1 str1" transform="matrix(6.96894E-15 -0.263133 -0.263133 -6.96894E-15 31.2336 12.3676)" r="1"/>
  <circle class="fil1 str1" transform="matrix(6.96894E-15 -0.263133 -0.263133 -6.96894E-15 31.2336 10.2714)" r="1"/>
  <rect class="fil2" transform="matrix(3.08792E-14 -1.16593 -1.14311 -3.02747E-14 1.15307 18.866)" width="0.9" height="0.92"/>
  <g>
   <path class="fil3" d="M6.91 9.97l0 0.64 -0.58 -0.32 0.58 -0.32zm-0.57 0.37c-0.03,0 -0.05,-0.02 -0.05,-0.05 0,-0.03 0.02,-0.05 0.05,-0.05l0 0.1zm24.63 -0.04l-24.63 0.04 0 -0.1 24.63 -0.04 0 0.1zm-0.57 -0.37l0.58 0.32 -0.58 0.32 0 -0.64zm0.57 0.27c0.03,0 0.05,0.02 0.05,0.05 0,0.03 -0.02,0.05 -0.05,0.05l0 -0.1z"/>
  </g>
  <rect class="fil4" x="16.87" y="10.64" width="4.61" height="2.1"/>
  <rect class="fil4" x="33.02" y="14.99" width="3.77" height="2.1"/>
  <g>
   <path class="fil3" d="M32.07 14.16l0 0.64 -0.58 -0.32 0.58 -0.32zm-0.57 0.38c-0.03,0 -0.06,-0.03 -0.06,-0.06 0,-0.03 0.03,-0.05 0.06,-0.05l0 0.11zm6.81 -0.04l-6.81 0.04 0 -0.11 6.81 -0.04 0 0.11zm-0.58 -0.37l0.59 0.31 -0.58 0.33 -0.01 -0.64zm0.58 0.26c0.03,0 0.05,0.03 0.05,0.05 0,0.03 -0.02,0.06 -0.05,0.06l0 -0.11z"/>
  </g>
  <g>
   <path class="fil3" d="M5.77 18.35l0.64 -0.01 -0.31 0.59 -0.33 -0.58zm0.38 0.57c0,0.03 -0.02,0.05 -0.05,0.05 -0.03,0 -0.05,-0.02 -0.05,-0.05l0.1 0zm-0.04 -4.19l0.04 4.19 -0.1 0 -0.04 -4.19 0.1 0zm-0.36 0.57l0.31 -0.58 0.32 0.58 -0.63 0zm0.26 -0.57c0,-0.03 0.02,-0.06 0.05,-0.06 0.03,0 0.05,0.03 0.05,0.06l-0.1 0z"/>
  </g>
  <rect class="fil4" x="6.71" y="15.77" width="3.77" height="2.1"/>
  <rect class="fil4" x="1.05" y="12" width="3.77" height="2.1"/>
  <g>
   <path class="fil3" d="M0.62 14.16l0.01 0.64 -0.58 -0.32 0.57 -0.32zm-0.57 0.38c-0.03,0 -0.05,-0.03 -0.05,-0.06 0,-0.02 0.02,-0.05 0.05,-0.05l0 0.11zm5.77 -0.04l-5.77 0.04 0 -0.11 5.77 -0.04 0 0.11zm-0.58 -0.37l0.58 0.31 -0.57 0.33 -0.01 -0.64zm0.58 0.26c0.03,0 0.05,0.03 0.05,0.05 0,0.03 -0.02,0.06 -0.05,0.06l0 -0.11z"/>
  </g>
  <rect class="fil4" x="6.81" y="1.83" width="3.77" height="2.1"/>
  <g>
   <path class="fil3" d="M5.78 5.25l0.63 -0.01 -0.31 0.58 -0.32 -0.57zm0.37 0.57c0,0.03 -0.02,0.05 -0.05,0.05 -0.03,0 -0.05,-0.02 -0.05,-0.05l0.1 0zm-0.04 -5.77l0.04 5.77 -0.1 0 -0.04 -5.77 0.1 0zm-0.37 0.58l0.32 -0.58 0.32 0.57 -0.64 0.01zm0.27 -0.58c0,-0.03 0.02,-0.05 0.05,-0.05 0.03,0 0.05,0.02 0.05,0.05l-0.1 0z"/>
  </g>
  <rect class="fil5 str2" x="14.62" y="1.68" width="12.58" height="6.29"/>
  <circle class="fil6" cx="15.98" cy="4.82" r="1.05"/>
  <circle class="fil6" cx="21.38" cy="4.82" r="1.05"/>
  <g>
   <path class="fil3" d="M16.04 3.54l-0.11 0 0 -0.07 0.11 0 0 0.07zm0 0.25l-0.11 0 0 -0.13 0.11 0 0 0.13zm-0.11 0.19l0 -0.06 0.11 0 0 0.06 0 0 -0.11 0zm0.11 0.05l-0.11 0 0 -0.05 0.11 0 0 0.05zm0 0.21l-0.11 0 0 -0.11 0.11 0 0 0.11zm0 0.2l-0.11 0 0 -0.1 0.11 0 0 0.1zm0 0.21l-0.11 0 0 -0.1 0.11 0 0 0.1zm0 0.21l-0.11 0 0 -0.11 0.11 0 0 0.11zm0 0.2l-0.11 0 0 -0.1 0.11 0 0 0.1zm0 0.21l-0.11 0 0 -0.1 0.11 0 0 0.1zm0 0.2l-0.11 0 0 -0.1 0.11 0 0 0.1zm0 0.21l-0.11 0 0 -0.1 0.11 0 0 0.1zm0 0.21l-0.11 0 0 -0.11 0.11 0 0 0.11zm0 0.2l-0.11 0 0 -0.1 0.11 0 0 0.1zm0 0.21l-0.11 0 0 -0.1 0.11 0 0 0.1zm0 0.21l-0.11 0 0 -0.11 0.11 0 0 0.11zm0 0.2l-0.11 0 0 -0.1 0.11 0 0 0.1zm-0.11 0.16l0 -0.05 0.11 0 0 0.05 -0.11 0z"/>
  </g>
  <g>
   <path class="fil3" d="M14.78 4.77l0 0.1 -0.05 0 0 -0.1 0.05 0zm0.18 0l0 0.1 -0.09 0 0 -0.1 0.09 0zm0.14 0.1l-0.05 0 0 -0.1 0.05 0 0 0 0 0.1zm0.05 -0.1l0 0.1 -0.05 0 0 -0.1 0.05 0zm0.22 0l0 0.1 -0.11 0 0 -0.1 0.11 0zm0.21 0l0 0.1 -0.1 0 0 -0.1 0.1 0zm0.22 0l0 0.1 -0.11 0 0 -0.1 0.11 0zm0.21 0l0 0.1 -0.11 0 0 -0.1 0.11 0zm0.21 0l0 0.1 -0.1 0 0 -0.1 0.1 0zm0.22 0l0 0.1 -0.11 0 0 -0.1 0.11 0zm0.21 0l0 0.1 -0.11 0 0 -0.1 0.11 0zm0.22 0l0 0.1 -0.11 0 0 -0.1 0.11 0zm0.21 0l0 0.1 -0.11 0 0 -0.1 0.11 0zm0.16 0.1l-0.05 0 0 -0.1 0.05 0 0 0.1z"/>
  </g>
  <g>
   <path class="fil3" d="M16.56 6.55l-0.01 0.64 -0.57 -0.32 0.58 -0.32zm-0.58 0.37c-0.03,0 -0.05,-0.03 -0.05,-0.05 0,-0.03 0.03,-0.06 0.05,-0.06l0 0.11zm5.4 0.04l-5.4 -0.04 0 -0.11 5.4 0.04 0 0.11zm-0.57 -0.38l0.58 0.33 -0.58 0.31 0 -0.64zm0.57 0.27c0.03,0 0.05,0.03 0.05,0.06 0,0.02 -0.02,0.05 -0.05,0.05l0 -0.11z"/>
  </g>
  <rect class="fil4" x="17.66" y="4.56" width="2.1" height="2.1"/>
  <g>
   <path class="fil3" d="M20.18 4.77l0 0.1 -0.06 0 0 -0.1 0.06 0zm0.18 0l0 0.1 -0.09 0 0 -0.1 0.09 0zm0.14 0.1l-0.05 0 0 -0.1 0.05 0 0 0 0 0.1zm0.05 -0.1l0 0.1 -0.05 0 0 -0.1 0.05 0zm0.22 0l0 0.1 -0.11 0 0 -0.1 0.11 0zm0.21 0l0 0.1 -0.11 0 0 -0.1 0.11 0zm0.21 0l0 0.1 -0.1 0 0 -0.1 0.1 0zm0.22 0l0 0.1 -0.11 0 0 -0.1 0.11 0zm0.21 0l0 0.1 -0.1 0 0 -0.1 0.1 0zm0.22 0l0 0.1 -0.11 0 0 -0.1 0.11 0zm0.21 0l0 0.1 -0.11 0 0 -0.1 0.11 0zm0.21 0l0 0.1 -0.1 0 0 -0.1 0.1 0zm0.22 0l0 0.1 -0.11 0 0 -0.1 0.11 0zm0.16 0.1l-0.06 0 0 -0.1 0.06 0 0 0.1z"/>
  </g>
  <g>
   <path class="fil3" d="M21.43 3.52l-0.1 0 0 -0.06 0.1 0 0 0.06zm0 0.26l-0.1 0 0 -0.13 0.1 0 0 0.13zm-0.1 0.19l0 -0.07 0.1 0 0 0.07 0 0 -0.1 0zm0.1 0.05l-0.1 0 0 -0.05 0.1 0 0 0.05zm0 0.21l-0.1 0 0 -0.11 0.1 0 0 0.11zm0 0.2l-0.1 0 0 -0.1 0.1 0 0 0.1zm0 0.21l-0.1 0 0 -0.11 0.1 0 0 0.11zm0 0.2l-0.1 0 0 -0.1 0.1 0 0 0.1zm0 0.21l-0.1 0 0 -0.1 0.1 0 0 0.1zm0 0.21l-0.1 0 0 -0.11 0.1 0 0 0.11zm0 0.2l-0.1 0 0 -0.1 0.1 0 0 0.1zm0 0.21l-0.1 0 0 -0.1 0.1 0 0 0.1zm0 0.2l-0.1 0 0 -0.1 0.1 0 0 0.1zm0 0.21l-0.1 0 0 -0.1 0.1 0 0 0.1zm0 0.21l-0.1 0 0 -0.11 0.1 0 0 0.11zm0 0.2l-0.1 0 0 -0.1 0.1 0 0 0.1zm0 0.21l-0.1 0 0 -0.1 0.1 0 0 0.1zm-0.1 0.15l0 -0.05 0.1 0 0 0.05 -0.1 0z"/>
  </g>
  <g>
   <path class="fil3" d="M21.72 4.01l0.45 0.46 -0.64 0.18 0.19 -0.64zm-0.14 0.67c-0.02,0.02 -0.06,0.02 -0.08,0 -0.02,-0.02 -0.02,-0.05 0,-0.07l0.08 0.07zm1.57 -1.57l-1.57 1.57 -0.08 -0.07 1.57 -1.57 0.08 0.07zm-0.08 -0.07c0.02,-0.02 0.06,-0.02 0.08,0 0.02,0.02 0.02,0.05 0,0.07l-0.08 -0.07z"/>
  </g>
  <rect class="fil4" x="23.11" y="3.07" width="2.1" height="2.1"/>
  <line class="fil5 str3" x1="30.19" y1="5.16" x2="27.2" y2= "1.68" />
  <rect class="fil5 str2" transform="matrix(3.01739E-14 -1.1393 -1 -2.64845E-14 32.2817 9.22348)" width="3.67" height="2.1"/>
  <circle class="fil1 str1" transform="matrix(6.96894E-15 -0.263133 -0.263133 -6.96894E-15 31.2336 8.17526)" r="1"/>
  <circle class="fil1 str1" transform="matrix(6.96894E-15 -0.263133 -0.263133 -6.96894E-15 31.2336 6.07896)" r="1"/>
  <line class="fil5 str3" x1="30.19" y1="9.22" x2="27.2" y2= "7.97" />
 </g>
</svg>
